<?xml version="1.0" encoding="utf-8" standalone="no"?>
<!DOCTYPE svg PUBLIC "-//W3C//DTD SVG 1.1//EN"
  "http://www.w3.org/Graphics/SVG/1.1/DTD/svg11.dtd">
<!-- Created with matplotlib (https://matplotlib.org/) -->
<svg height="288pt" version="1.1" viewBox="0 0 720 288" width="720pt" xmlns="http://www.w3.org/2000/svg" xmlns:xlink="http://www.w3.org/1999/xlink">
 <metadata>
  <rdf:RDF xmlns:cc="http://creativecommons.org/ns#" xmlns:dc="http://purl.org/dc/elements/1.1/" xmlns:rdf="http://www.w3.org/1999/02/22-rdf-syntax-ns#">
   <cc:Work>
    <dc:type rdf:resource="http://purl.org/dc/dcmitype/StillImage"/>
    <dc:date>2021-07-30T13:52:19.420249</dc:date>
    <dc:format>image/svg+xml</dc:format>
    <dc:creator>
     <cc:Agent>
      <dc:title>Matplotlib v3.3.4, https://matplotlib.org/</dc:title>
     </cc:Agent>
    </dc:creator>
   </cc:Work>
  </rdf:RDF>
 </metadata>
 <defs>
  <style type="text/css">*{stroke-linecap:butt;stroke-linejoin:round;}</style>
 </defs>
 <g id="figure_1">
  <g id="patch_1">
   <path d="M 0 288 
L 720 288 
L 720 0 
L 0 0 
z
" style="fill:none;"/>
  </g>
  <g id="axes_1">
   <g id="patch_2">
    <path d="M 50.4 230.4 
L 169.476923 230.4 
L 169.476923 34.56 
L 50.4 34.56 
z
" style="fill:none;"/>
   </g>
   <g id="matplotlib.axis_1">
    <g id="xtick_1">
     <g id="line2d_1">
      <defs>
       <path d="M 0 0 
L 0 3.5 
" id="mc009b4b9b8" style="stroke:#000000;stroke-width:0.8;"/>
      </defs>
      <g>
       <use style="stroke:#000000;stroke-width:0.8;" x="88.098197" xlink:href="#mc009b4b9b8" y="230.4"/>
      </g>
     </g>
     <g id="text_1">
      <!-- 1000 -->
      <g transform="translate(75.373197 244.998437)scale(0.1 -0.1)">
       <defs>
        <path d="M 12.40625 8.296875 
L 28.515625 8.296875 
L 28.515625 63.921875 
L 10.984375 60.40625 
L 10.984375 69.390625 
L 28.421875 72.90625 
L 38.28125 72.90625 
L 38.28125 8.296875 
L 54.390625 8.296875 
L 54.390625 0 
L 12.40625 0 
z
" id="DejaVuSans-49"/>
        <path d="M 31.78125 66.40625 
Q 24.171875 66.40625 20.328125 58.90625 
Q 16.5 51.421875 16.5 36.375 
Q 16.5 21.390625 20.328125 13.890625 
Q 24.171875 6.390625 31.78125 6.390625 
Q 39.453125 6.390625 43.28125 13.890625 
Q 47.125 21.390625 47.125 36.375 
Q 47.125 51.421875 43.28125 58.90625 
Q 39.453125 66.40625 31.78125 66.40625 
z
M 31.78125 74.21875 
Q 44.046875 74.21875 50.515625 64.515625 
Q 56.984375 54.828125 56.984375 36.375 
Q 56.984375 17.96875 50.515625 8.265625 
Q 44.046875 -1.421875 31.78125 -1.421875 
Q 19.53125 -1.421875 13.0625 8.265625 
Q 6.59375 17.96875 6.59375 36.375 
Q 6.59375 54.828125 13.0625 64.515625 
Q 19.53125 74.21875 31.78125 74.21875 
z
" id="DejaVuSans-48"/>
       </defs>
       <use xlink:href="#DejaVuSans-49"/>
       <use x="63.623047" xlink:href="#DejaVuSans-48"/>
       <use x="127.246094" xlink:href="#DejaVuSans-48"/>
       <use x="190.869141" xlink:href="#DejaVuSans-48"/>
      </g>
     </g>
    </g>
    <g id="xtick_2">
     <g id="line2d_2">
      <g>
       <use style="stroke:#000000;stroke-width:0.8;" x="126.081266" xlink:href="#mc009b4b9b8" y="230.4"/>
      </g>
     </g>
     <g id="text_2">
      <!-- 2000 -->
      <g transform="translate(113.356266 244.998437)scale(0.1 -0.1)">
       <defs>
        <path d="M 19.1875 8.296875 
L 53.609375 8.296875 
L 53.609375 0 
L 7.328125 0 
L 7.328125 8.296875 
Q 12.9375 14.109375 22.625 23.890625 
Q 32.328125 33.6875 34.8125 36.53125 
Q 39.546875 41.84375 41.421875 45.53125 
Q 43.3125 49.21875 43.3125 52.78125 
Q 43.3125 58.59375 39.234375 62.25 
Q 35.15625 65.921875 28.609375 65.921875 
Q 23.96875 65.921875 18.8125 64.3125 
Q 13.671875 62.703125 7.8125 59.421875 
L 7.8125 69.390625 
Q 13.765625 71.78125 18.9375 73 
Q 24.125 74.21875 28.421875 74.21875 
Q 39.75 74.21875 46.484375 68.546875 
Q 53.21875 62.890625 53.21875 53.421875 
Q 53.21875 48.921875 51.53125 44.890625 
Q 49.859375 40.875 45.40625 35.40625 
Q 44.1875 33.984375 37.640625 27.21875 
Q 31.109375 20.453125 19.1875 8.296875 
z
" id="DejaVuSans-50"/>
       </defs>
       <use xlink:href="#DejaVuSans-50"/>
       <use x="63.623047" xlink:href="#DejaVuSans-48"/>
       <use x="127.246094" xlink:href="#DejaVuSans-48"/>
       <use x="190.869141" xlink:href="#DejaVuSans-48"/>
      </g>
     </g>
    </g>
    <g id="xtick_3">
     <g id="line2d_3">
      <g>
       <use style="stroke:#000000;stroke-width:0.8;" x="164.064336" xlink:href="#mc009b4b9b8" y="230.4"/>
      </g>
     </g>
     <g id="text_3">
      <!-- 3000 -->
      <g transform="translate(151.339336 244.998437)scale(0.1 -0.1)">
       <defs>
        <path d="M 40.578125 39.3125 
Q 47.65625 37.796875 51.625 33 
Q 55.609375 28.21875 55.609375 21.1875 
Q 55.609375 10.40625 48.1875 4.484375 
Q 40.765625 -1.421875 27.09375 -1.421875 
Q 22.515625 -1.421875 17.65625 -0.515625 
Q 12.796875 0.390625 7.625 2.203125 
L 7.625 11.71875 
Q 11.71875 9.328125 16.59375 8.109375 
Q 21.484375 6.890625 26.8125 6.890625 
Q 36.078125 6.890625 40.9375 10.546875 
Q 45.796875 14.203125 45.796875 21.1875 
Q 45.796875 27.640625 41.28125 31.265625 
Q 36.765625 34.90625 28.71875 34.90625 
L 20.21875 34.90625 
L 20.21875 43.015625 
L 29.109375 43.015625 
Q 36.375 43.015625 40.234375 45.921875 
Q 44.09375 48.828125 44.09375 54.296875 
Q 44.09375 59.90625 40.109375 62.90625 
Q 36.140625 65.921875 28.71875 65.921875 
Q 24.65625 65.921875 20.015625 65.03125 
Q 15.375 64.15625 9.8125 62.3125 
L 9.8125 71.09375 
Q 15.4375 72.65625 20.34375 73.4375 
Q 25.25 74.21875 29.59375 74.21875 
Q 40.828125 74.21875 47.359375 69.109375 
Q 53.90625 64.015625 53.90625 55.328125 
Q 53.90625 49.265625 50.4375 45.09375 
Q 46.96875 40.921875 40.578125 39.3125 
z
" id="DejaVuSans-51"/>
       </defs>
       <use xlink:href="#DejaVuSans-51"/>
       <use x="63.623047" xlink:href="#DejaVuSans-48"/>
       <use x="127.246094" xlink:href="#DejaVuSans-48"/>
       <use x="190.869141" xlink:href="#DejaVuSans-48"/>
      </g>
     </g>
    </g>
    <g id="text_4">
     <!-- Number of edges -->
     <g transform="translate(66.748618 258.676562)scale(0.1 -0.1)">
      <defs>
       <path d="M 9.8125 72.90625 
L 23.09375 72.90625 
L 55.421875 11.921875 
L 55.421875 72.90625 
L 64.984375 72.90625 
L 64.984375 0 
L 51.703125 0 
L 19.390625 60.984375 
L 19.390625 0 
L 9.8125 0 
z
" id="DejaVuSans-78"/>
       <path d="M 8.5 21.578125 
L 8.5 54.6875 
L 17.484375 54.6875 
L 17.484375 21.921875 
Q 17.484375 14.15625 20.5 10.265625 
Q 23.53125 6.390625 29.59375 6.390625 
Q 36.859375 6.390625 41.078125 11.03125 
Q 45.3125 15.671875 45.3125 23.6875 
L 45.3125 54.6875 
L 54.296875 54.6875 
L 54.296875 0 
L 45.3125 0 
L 45.3125 8.40625 
Q 42.046875 3.421875 37.71875 1 
Q 33.40625 -1.421875 27.6875 -1.421875 
Q 18.265625 -1.421875 13.375 4.4375 
Q 8.5 10.296875 8.5 21.578125 
z
M 31.109375 56 
z
" id="DejaVuSans-117"/>
       <path d="M 52 44.1875 
Q 55.375 50.25 60.0625 53.125 
Q 64.75 56 71.09375 56 
Q 79.640625 56 84.28125 50.015625 
Q 88.921875 44.046875 88.921875 33.015625 
L 88.921875 0 
L 79.890625 0 
L 79.890625 32.71875 
Q 79.890625 40.578125 77.09375 44.375 
Q 74.3125 48.1875 68.609375 48.1875 
Q 61.625 48.1875 57.5625 43.546875 
Q 53.515625 38.921875 53.515625 30.90625 
L 53.515625 0 
L 44.484375 0 
L 44.484375 32.71875 
Q 44.484375 40.625 41.703125 44.40625 
Q 38.921875 48.1875 33.109375 48.1875 
Q 26.21875 48.1875 22.15625 43.53125 
Q 18.109375 38.875 18.109375 30.90625 
L 18.109375 0 
L 9.078125 0 
L 9.078125 54.6875 
L 18.109375 54.6875 
L 18.109375 46.1875 
Q 21.1875 51.21875 25.484375 53.609375 
Q 29.78125 56 35.6875 56 
Q 41.65625 56 45.828125 52.96875 
Q 50 49.953125 52 44.1875 
z
" id="DejaVuSans-109"/>
       <path d="M 48.6875 27.296875 
Q 48.6875 37.203125 44.609375 42.84375 
Q 40.53125 48.484375 33.40625 48.484375 
Q 26.265625 48.484375 22.1875 42.84375 
Q 18.109375 37.203125 18.109375 27.296875 
Q 18.109375 17.390625 22.1875 11.75 
Q 26.265625 6.109375 33.40625 6.109375 
Q 40.53125 6.109375 44.609375 11.75 
Q 48.6875 17.390625 48.6875 27.296875 
z
M 18.109375 46.390625 
Q 20.953125 51.265625 25.265625 53.625 
Q 29.59375 56 35.59375 56 
Q 45.5625 56 51.78125 48.09375 
Q 58.015625 40.1875 58.015625 27.296875 
Q 58.015625 14.40625 51.78125 6.484375 
Q 45.5625 -1.421875 35.59375 -1.421875 
Q 29.59375 -1.421875 25.265625 0.953125 
Q 20.953125 3.328125 18.109375 8.203125 
L 18.109375 0 
L 9.078125 0 
L 9.078125 75.984375 
L 18.109375 75.984375 
z
" id="DejaVuSans-98"/>
       <path d="M 56.203125 29.59375 
L 56.203125 25.203125 
L 14.890625 25.203125 
Q 15.484375 15.921875 20.484375 11.0625 
Q 25.484375 6.203125 34.421875 6.203125 
Q 39.59375 6.203125 44.453125 7.46875 
Q 49.3125 8.734375 54.109375 11.28125 
L 54.109375 2.78125 
Q 49.265625 0.734375 44.1875 -0.34375 
Q 39.109375 -1.421875 33.890625 -1.421875 
Q 20.796875 -1.421875 13.15625 6.1875 
Q 5.515625 13.8125 5.515625 26.8125 
Q 5.515625 40.234375 12.765625 48.109375 
Q 20.015625 56 32.328125 56 
Q 43.359375 56 49.78125 48.890625 
Q 56.203125 41.796875 56.203125 29.59375 
z
M 47.21875 32.234375 
Q 47.125 39.59375 43.09375 43.984375 
Q 39.0625 48.390625 32.421875 48.390625 
Q 24.90625 48.390625 20.390625 44.140625 
Q 15.875 39.890625 15.1875 32.171875 
z
" id="DejaVuSans-101"/>
       <path d="M 41.109375 46.296875 
Q 39.59375 47.171875 37.8125 47.578125 
Q 36.03125 48 33.890625 48 
Q 26.265625 48 22.1875 43.046875 
Q 18.109375 38.09375 18.109375 28.8125 
L 18.109375 0 
L 9.078125 0 
L 9.078125 54.6875 
L 18.109375 54.6875 
L 18.109375 46.1875 
Q 20.953125 51.171875 25.484375 53.578125 
Q 30.03125 56 36.53125 56 
Q 37.453125 56 38.578125 55.875 
Q 39.703125 55.765625 41.0625 55.515625 
z
" id="DejaVuSans-114"/>
       <path id="DejaVuSans-32"/>
       <path d="M 30.609375 48.390625 
Q 23.390625 48.390625 19.1875 42.75 
Q 14.984375 37.109375 14.984375 27.296875 
Q 14.984375 17.484375 19.15625 11.84375 
Q 23.34375 6.203125 30.609375 6.203125 
Q 37.796875 6.203125 41.984375 11.859375 
Q 46.1875 17.53125 46.1875 27.296875 
Q 46.1875 37.015625 41.984375 42.703125 
Q 37.796875 48.390625 30.609375 48.390625 
z
M 30.609375 56 
Q 42.328125 56 49.015625 48.375 
Q 55.71875 40.765625 55.71875 27.296875 
Q 55.71875 13.875 49.015625 6.21875 
Q 42.328125 -1.421875 30.609375 -1.421875 
Q 18.84375 -1.421875 12.171875 6.21875 
Q 5.515625 13.875 5.515625 27.296875 
Q 5.515625 40.765625 12.171875 48.375 
Q 18.84375 56 30.609375 56 
z
" id="DejaVuSans-111"/>
       <path d="M 37.109375 75.984375 
L 37.109375 68.5 
L 28.515625 68.5 
Q 23.6875 68.5 21.796875 66.546875 
Q 19.921875 64.59375 19.921875 59.515625 
L 19.921875 54.6875 
L 34.71875 54.6875 
L 34.71875 47.703125 
L 19.921875 47.703125 
L 19.921875 0 
L 10.890625 0 
L 10.890625 47.703125 
L 2.296875 47.703125 
L 2.296875 54.6875 
L 10.890625 54.6875 
L 10.890625 58.5 
Q 10.890625 67.625 15.140625 71.796875 
Q 19.390625 75.984375 28.609375 75.984375 
z
" id="DejaVuSans-102"/>
       <path d="M 45.40625 46.390625 
L 45.40625 75.984375 
L 54.390625 75.984375 
L 54.390625 0 
L 45.40625 0 
L 45.40625 8.203125 
Q 42.578125 3.328125 38.25 0.953125 
Q 33.9375 -1.421875 27.875 -1.421875 
Q 17.96875 -1.421875 11.734375 6.484375 
Q 5.515625 14.40625 5.515625 27.296875 
Q 5.515625 40.1875 11.734375 48.09375 
Q 17.96875 56 27.875 56 
Q 33.9375 56 38.25 53.625 
Q 42.578125 51.265625 45.40625 46.390625 
z
M 14.796875 27.296875 
Q 14.796875 17.390625 18.875 11.75 
Q 22.953125 6.109375 30.078125 6.109375 
Q 37.203125 6.109375 41.296875 11.75 
Q 45.40625 17.390625 45.40625 27.296875 
Q 45.40625 37.203125 41.296875 42.84375 
Q 37.203125 48.484375 30.078125 48.484375 
Q 22.953125 48.484375 18.875 42.84375 
Q 14.796875 37.203125 14.796875 27.296875 
z
" id="DejaVuSans-100"/>
       <path d="M 45.40625 27.984375 
Q 45.40625 37.75 41.375 43.109375 
Q 37.359375 48.484375 30.078125 48.484375 
Q 22.859375 48.484375 18.828125 43.109375 
Q 14.796875 37.75 14.796875 27.984375 
Q 14.796875 18.265625 18.828125 12.890625 
Q 22.859375 7.515625 30.078125 7.515625 
Q 37.359375 7.515625 41.375 12.890625 
Q 45.40625 18.265625 45.40625 27.984375 
z
M 54.390625 6.78125 
Q 54.390625 -7.171875 48.1875 -13.984375 
Q 42 -20.796875 29.203125 -20.796875 
Q 24.46875 -20.796875 20.265625 -20.09375 
Q 16.0625 -19.390625 12.109375 -17.921875 
L 12.109375 -9.1875 
Q 16.0625 -11.328125 19.921875 -12.34375 
Q 23.78125 -13.375 27.78125 -13.375 
Q 36.625 -13.375 41.015625 -8.765625 
Q 45.40625 -4.15625 45.40625 5.171875 
L 45.40625 9.625 
Q 42.625 4.78125 38.28125 2.390625 
Q 33.9375 0 27.875 0 
Q 17.828125 0 11.671875 7.65625 
Q 5.515625 15.328125 5.515625 27.984375 
Q 5.515625 40.671875 11.671875 48.328125 
Q 17.828125 56 27.875 56 
Q 33.9375 56 38.28125 53.609375 
Q 42.625 51.21875 45.40625 46.390625 
L 45.40625 54.6875 
L 54.390625 54.6875 
z
" id="DejaVuSans-103"/>
       <path d="M 44.28125 53.078125 
L 44.28125 44.578125 
Q 40.484375 46.53125 36.375 47.5 
Q 32.28125 48.484375 27.875 48.484375 
Q 21.1875 48.484375 17.84375 46.4375 
Q 14.5 44.390625 14.5 40.28125 
Q 14.5 37.15625 16.890625 35.375 
Q 19.28125 33.59375 26.515625 31.984375 
L 29.59375 31.296875 
Q 39.15625 29.25 43.1875 25.515625 
Q 47.21875 21.78125 47.21875 15.09375 
Q 47.21875 7.46875 41.1875 3.015625 
Q 35.15625 -1.421875 24.609375 -1.421875 
Q 20.21875 -1.421875 15.453125 -0.5625 
Q 10.6875 0.296875 5.421875 2 
L 5.421875 11.28125 
Q 10.40625 8.6875 15.234375 7.390625 
Q 20.0625 6.109375 24.8125 6.109375 
Q 31.15625 6.109375 34.5625 8.28125 
Q 37.984375 10.453125 37.984375 14.40625 
Q 37.984375 18.0625 35.515625 20.015625 
Q 33.0625 21.96875 24.703125 23.78125 
L 21.578125 24.515625 
Q 13.234375 26.265625 9.515625 29.90625 
Q 5.8125 33.546875 5.8125 39.890625 
Q 5.8125 47.609375 11.28125 51.796875 
Q 16.75 56 26.8125 56 
Q 31.78125 56 36.171875 55.265625 
Q 40.578125 54.546875 44.28125 53.078125 
z
" id="DejaVuSans-115"/>
      </defs>
      <use xlink:href="#DejaVuSans-78"/>
      <use x="74.804688" xlink:href="#DejaVuSans-117"/>
      <use x="138.183594" xlink:href="#DejaVuSans-109"/>
      <use x="235.595703" xlink:href="#DejaVuSans-98"/>
      <use x="299.072266" xlink:href="#DejaVuSans-101"/>
      <use x="360.595703" xlink:href="#DejaVuSans-114"/>
      <use x="401.708984" xlink:href="#DejaVuSans-32"/>
      <use x="433.496094" xlink:href="#DejaVuSans-111"/>
      <use x="494.677734" xlink:href="#DejaVuSans-102"/>
      <use x="529.882812" xlink:href="#DejaVuSans-32"/>
      <use x="561.669922" xlink:href="#DejaVuSans-101"/>
      <use x="623.193359" xlink:href="#DejaVuSans-100"/>
      <use x="686.669922" xlink:href="#DejaVuSans-103"/>
      <use x="750.146484" xlink:href="#DejaVuSans-101"/>
      <use x="811.669922" xlink:href="#DejaVuSans-115"/>
     </g>
    </g>
   </g>
   <g id="matplotlib.axis_2">
    <g id="ytick_1">
     <g id="line2d_4">
      <defs>
       <path d="M 0 0 
L -3.5 0 
" id="m96fd5dd437" style="stroke:#000000;stroke-width:0.8;"/>
      </defs>
      <g>
       <use style="stroke:#000000;stroke-width:0.8;" x="50.4" xlink:href="#m96fd5dd437" y="221.825036"/>
      </g>
     </g>
     <g id="text_5">
      <!-- 0 -->
      <g transform="translate(37.0375 225.624254)scale(0.1 -0.1)">
       <use xlink:href="#DejaVuSans-48"/>
      </g>
     </g>
    </g>
    <g id="ytick_2">
     <g id="line2d_5">
      <g>
       <use style="stroke:#000000;stroke-width:0.8;" x="50.4" xlink:href="#m96fd5dd437" y="195.930839"/>
      </g>
     </g>
     <g id="text_6">
      <!-- 5 -->
      <g transform="translate(37.0375 199.730057)scale(0.1 -0.1)">
       <defs>
        <path d="M 10.796875 72.90625 
L 49.515625 72.90625 
L 49.515625 64.59375 
L 19.828125 64.59375 
L 19.828125 46.734375 
Q 21.96875 47.46875 24.109375 47.828125 
Q 26.265625 48.1875 28.421875 48.1875 
Q 40.625 48.1875 47.75 41.5 
Q 54.890625 34.8125 54.890625 23.390625 
Q 54.890625 11.625 47.5625 5.09375 
Q 40.234375 -1.421875 26.90625 -1.421875 
Q 22.3125 -1.421875 17.546875 -0.640625 
Q 12.796875 0.140625 7.71875 1.703125 
L 7.71875 11.625 
Q 12.109375 9.234375 16.796875 8.0625 
Q 21.484375 6.890625 26.703125 6.890625 
Q 35.15625 6.890625 40.078125 11.328125 
Q 45.015625 15.765625 45.015625 23.390625 
Q 45.015625 31 40.078125 35.4375 
Q 35.15625 39.890625 26.703125 39.890625 
Q 22.75 39.890625 18.8125 39.015625 
Q 14.890625 38.140625 10.796875 36.28125 
z
" id="DejaVuSans-53"/>
       </defs>
       <use xlink:href="#DejaVuSans-53"/>
      </g>
     </g>
    </g>
    <g id="ytick_3">
     <g id="line2d_6">
      <g>
       <use style="stroke:#000000;stroke-width:0.8;" x="50.4" xlink:href="#m96fd5dd437" y="170.036641"/>
      </g>
     </g>
     <g id="text_7">
      <!-- 10 -->
      <g transform="translate(30.675 173.83586)scale(0.1 -0.1)">
       <use xlink:href="#DejaVuSans-49"/>
       <use x="63.623047" xlink:href="#DejaVuSans-48"/>
      </g>
     </g>
    </g>
    <g id="ytick_4">
     <g id="line2d_7">
      <g>
       <use style="stroke:#000000;stroke-width:0.8;" x="50.4" xlink:href="#m96fd5dd437" y="144.142444"/>
      </g>
     </g>
     <g id="text_8">
      <!-- 15 -->
      <g transform="translate(30.675 147.941663)scale(0.1 -0.1)">
       <use xlink:href="#DejaVuSans-49"/>
       <use x="63.623047" xlink:href="#DejaVuSans-53"/>
      </g>
     </g>
    </g>
    <g id="ytick_5">
     <g id="line2d_8">
      <g>
       <use style="stroke:#000000;stroke-width:0.8;" x="50.4" xlink:href="#m96fd5dd437" y="118.248247"/>
      </g>
     </g>
     <g id="text_9">
      <!-- 20 -->
      <g transform="translate(30.675 122.047466)scale(0.1 -0.1)">
       <use xlink:href="#DejaVuSans-50"/>
       <use x="63.623047" xlink:href="#DejaVuSans-48"/>
      </g>
     </g>
    </g>
    <g id="ytick_6">
     <g id="line2d_9">
      <g>
       <use style="stroke:#000000;stroke-width:0.8;" x="50.4" xlink:href="#m96fd5dd437" y="92.35405"/>
      </g>
     </g>
     <g id="text_10">
      <!-- 25 -->
      <g transform="translate(30.675 96.153269)scale(0.1 -0.1)">
       <use xlink:href="#DejaVuSans-50"/>
       <use x="63.623047" xlink:href="#DejaVuSans-53"/>
      </g>
     </g>
    </g>
    <g id="ytick_7">
     <g id="line2d_10">
      <g>
       <use style="stroke:#000000;stroke-width:0.8;" x="50.4" xlink:href="#m96fd5dd437" y="66.459853"/>
      </g>
     </g>
     <g id="text_11">
      <!-- 30 -->
      <g transform="translate(30.675 70.259072)scale(0.1 -0.1)">
       <use xlink:href="#DejaVuSans-51"/>
       <use x="63.623047" xlink:href="#DejaVuSans-48"/>
      </g>
     </g>
    </g>
    <g id="ytick_8">
     <g id="line2d_11">
      <g>
       <use style="stroke:#000000;stroke-width:0.8;" x="50.4" xlink:href="#m96fd5dd437" y="40.565656"/>
      </g>
     </g>
     <g id="text_12">
      <!-- 35 -->
      <g transform="translate(30.675 44.364875)scale(0.1 -0.1)">
       <use xlink:href="#DejaVuSans-51"/>
       <use x="63.623047" xlink:href="#DejaVuSans-53"/>
      </g>
     </g>
    </g>
   </g>
   <g id="line2d_12">
    <path clip-path="url(#p25d648ea21)" d="M 55.812587 221.493624 
L 61.510048 221.498182 
L 67.207508 221.469767 
L 72.904969 221.372224 
L 78.602429 221.462016 
L 84.29989 221.014323 
L 89.99735 219.413552 
L 95.69481 220.973971 
L 101.392271 219.297097 
L 107.089731 219.002732 
L 112.787192 218.521497 
L 118.484652 218.971443 
L 124.182113 217.186099 
L 129.879573 218.27886 
L 135.577033 217.825711 
L 141.274494 206.099136 
L 146.971954 217.23806 
L 152.669415 192.518467 
L 158.366875 192.503811 
L 164.064336 210.709606 
" style="fill:none;stroke:#1f77b4;stroke-linecap:square;stroke-width:1.5;"/>
    <defs>
     <path d="M 0 3 
C 0.795609 3 1.55874 2.683901 2.12132 2.12132 
C 2.683901 1.55874 3 0.795609 3 0 
C 3 -0.795609 2.683901 -1.55874 2.12132 -2.12132 
C 1.55874 -2.683901 0.795609 -3 0 -3 
C -0.795609 -3 -1.55874 -2.683901 -2.12132 -2.12132 
C -2.683901 -1.55874 -3 -0.795609 -3 0 
C -3 0.795609 -2.683901 1.55874 -2.12132 2.12132 
C -1.55874 2.683901 -0.795609 3 0 3 
z
" id="m08941b10a9" style="stroke:#1f77b4;"/>
    </defs>
    <g clip-path="url(#p25d648ea21)">
     <use style="fill:#1f77b4;stroke:#1f77b4;" x="55.812587" xlink:href="#m08941b10a9" y="221.493624"/>
     <use style="fill:#1f77b4;stroke:#1f77b4;" x="61.510048" xlink:href="#m08941b10a9" y="221.498182"/>
     <use style="fill:#1f77b4;stroke:#1f77b4;" x="67.207508" xlink:href="#m08941b10a9" y="221.469767"/>
     <use style="fill:#1f77b4;stroke:#1f77b4;" x="72.904969" xlink:href="#m08941b10a9" y="221.372224"/>
     <use style="fill:#1f77b4;stroke:#1f77b4;" x="78.602429" xlink:href="#m08941b10a9" y="221.462016"/>
     <use style="fill:#1f77b4;stroke:#1f77b4;" x="84.29989" xlink:href="#m08941b10a9" y="221.014323"/>
     <use style="fill:#1f77b4;stroke:#1f77b4;" x="89.99735" xlink:href="#m08941b10a9" y="219.413552"/>
     <use style="fill:#1f77b4;stroke:#1f77b4;" x="95.69481" xlink:href="#m08941b10a9" y="220.973971"/>
     <use style="fill:#1f77b4;stroke:#1f77b4;" x="101.392271" xlink:href="#m08941b10a9" y="219.297097"/>
     <use style="fill:#1f77b4;stroke:#1f77b4;" x="107.089731" xlink:href="#m08941b10a9" y="219.002732"/>
     <use style="fill:#1f77b4;stroke:#1f77b4;" x="112.787192" xlink:href="#m08941b10a9" y="218.521497"/>
     <use style="fill:#1f77b4;stroke:#1f77b4;" x="118.484652" xlink:href="#m08941b10a9" y="218.971443"/>
     <use style="fill:#1f77b4;stroke:#1f77b4;" x="124.182113" xlink:href="#m08941b10a9" y="217.186099"/>
     <use style="fill:#1f77b4;stroke:#1f77b4;" x="129.879573" xlink:href="#m08941b10a9" y="218.27886"/>
     <use style="fill:#1f77b4;stroke:#1f77b4;" x="135.577033" xlink:href="#m08941b10a9" y="217.825711"/>
     <use style="fill:#1f77b4;stroke:#1f77b4;" x="141.274494" xlink:href="#m08941b10a9" y="206.099136"/>
     <use style="fill:#1f77b4;stroke:#1f77b4;" x="146.971954" xlink:href="#m08941b10a9" y="217.23806"/>
     <use style="fill:#1f77b4;stroke:#1f77b4;" x="152.669415" xlink:href="#m08941b10a9" y="192.518467"/>
     <use style="fill:#1f77b4;stroke:#1f77b4;" x="158.366875" xlink:href="#m08941b10a9" y="192.503811"/>
     <use style="fill:#1f77b4;stroke:#1f77b4;" x="164.064336" xlink:href="#m08941b10a9" y="210.709606"/>
    </g>
   </g>
   <g id="line2d_13">
    <path clip-path="url(#p25d648ea21)" d="M 55.812587 212.562871 
L 61.510048 208.809654 
L 67.207508 196.375899 
L 72.904969 216.836657 
L 78.602429 182.2497 
L 84.29989 215.515975 
L 89.99735 215.091172 
L 95.69481 214.728109 
L 101.392271 212.808089 
L 107.089731 193.221486 
L 112.787192 211.623525 
L 118.484652 207.791011 
L 124.182113 170.151508 
L 129.879573 182.380569 
L 135.577033 200.11377 
L 141.274494 43.461818 
L 146.971954 188.893417 
L 152.669415 109.238439 
L 158.366875 99.363635 
L 164.064336 138.797079 
" style="fill:none;stroke:#ff7f0e;stroke-dasharray:5.55,2.4;stroke-dashoffset:0;stroke-width:1.5;"/>
    <defs>
     <path d="M -3 3 
L 3 3 
L 3 -3 
L -3 -3 
z
" id="mbcdd148858" style="stroke:#ff7f0e;stroke-linejoin:miter;"/>
    </defs>
    <g clip-path="url(#p25d648ea21)">
     <use style="fill:#ff7f0e;stroke:#ff7f0e;stroke-linejoin:miter;" x="55.812587" xlink:href="#mbcdd148858" y="212.562871"/>
     <use style="fill:#ff7f0e;stroke:#ff7f0e;stroke-linejoin:miter;" x="61.510048" xlink:href="#mbcdd148858" y="208.809654"/>
     <use style="fill:#ff7f0e;stroke:#ff7f0e;stroke-linejoin:miter;" x="67.207508" xlink:href="#mbcdd148858" y="196.375899"/>
     <use style="fill:#ff7f0e;stroke:#ff7f0e;stroke-linejoin:miter;" x="72.904969" xlink:href="#mbcdd148858" y="216.836657"/>
     <use style="fill:#ff7f0e;stroke:#ff7f0e;stroke-linejoin:miter;" x="78.602429" xlink:href="#mbcdd148858" y="182.2497"/>
     <use style="fill:#ff7f0e;stroke:#ff7f0e;stroke-linejoin:miter;" x="84.29989" xlink:href="#mbcdd148858" y="215.515975"/>
     <use style="fill:#ff7f0e;stroke:#ff7f0e;stroke-linejoin:miter;" x="89.99735" xlink:href="#mbcdd148858" y="215.091172"/>
     <use style="fill:#ff7f0e;stroke:#ff7f0e;stroke-linejoin:miter;" x="95.69481" xlink:href="#mbcdd148858" y="214.728109"/>
     <use style="fill:#ff7f0e;stroke:#ff7f0e;stroke-linejoin:miter;" x="101.392271" xlink:href="#mbcdd148858" y="212.808089"/>
     <use style="fill:#ff7f0e;stroke:#ff7f0e;stroke-linejoin:miter;" x="107.089731" xlink:href="#mbcdd148858" y="193.221486"/>
     <use style="fill:#ff7f0e;stroke:#ff7f0e;stroke-linejoin:miter;" x="112.787192" xlink:href="#mbcdd148858" y="211.623525"/>
     <use style="fill:#ff7f0e;stroke:#ff7f0e;stroke-linejoin:miter;" x="118.484652" xlink:href="#mbcdd148858" y="207.791011"/>
     <use style="fill:#ff7f0e;stroke:#ff7f0e;stroke-linejoin:miter;" x="124.182113" xlink:href="#mbcdd148858" y="170.151508"/>
     <use style="fill:#ff7f0e;stroke:#ff7f0e;stroke-linejoin:miter;" x="129.879573" xlink:href="#mbcdd148858" y="182.380569"/>
     <use style="fill:#ff7f0e;stroke:#ff7f0e;stroke-linejoin:miter;" x="135.577033" xlink:href="#mbcdd148858" y="200.11377"/>
     <use style="fill:#ff7f0e;stroke:#ff7f0e;stroke-linejoin:miter;" x="141.274494" xlink:href="#mbcdd148858" y="43.461818"/>
     <use style="fill:#ff7f0e;stroke:#ff7f0e;stroke-linejoin:miter;" x="146.971954" xlink:href="#mbcdd148858" y="188.893417"/>
     <use style="fill:#ff7f0e;stroke:#ff7f0e;stroke-linejoin:miter;" x="152.669415" xlink:href="#mbcdd148858" y="109.238439"/>
     <use style="fill:#ff7f0e;stroke:#ff7f0e;stroke-linejoin:miter;" x="158.366875" xlink:href="#mbcdd148858" y="99.363635"/>
     <use style="fill:#ff7f0e;stroke:#ff7f0e;stroke-linejoin:miter;" x="164.064336" xlink:href="#mbcdd148858" y="138.797079"/>
    </g>
   </g>
   <g id="patch_3">
    <path d="M 50.4 230.4 
L 50.4 34.56 
" style="fill:none;stroke:#000000;stroke-linecap:square;stroke-linejoin:miter;stroke-width:0.8;"/>
   </g>
   <g id="patch_4">
    <path d="M 169.476923 230.4 
L 169.476923 34.56 
" style="fill:none;stroke:#000000;stroke-linecap:square;stroke-linejoin:miter;stroke-width:0.8;"/>
   </g>
   <g id="patch_5">
    <path d="M 50.4 230.4 
L 169.476923 230.4 
" style="fill:none;stroke:#000000;stroke-linecap:square;stroke-linejoin:miter;stroke-width:0.8;"/>
   </g>
   <g id="patch_6">
    <path d="M 50.4 34.56 
L 169.476923 34.56 
" style="fill:none;stroke:#000000;stroke-linecap:square;stroke-linejoin:miter;stroke-width:0.8;"/>
   </g>
   <g id="text_13">
    <!-- Execution time [min] -->
    <g transform="translate(47.132524 28.56)scale(0.12 -0.12)">
     <defs>
      <path d="M 9.8125 72.90625 
L 55.90625 72.90625 
L 55.90625 64.59375 
L 19.671875 64.59375 
L 19.671875 43.015625 
L 54.390625 43.015625 
L 54.390625 34.71875 
L 19.671875 34.71875 
L 19.671875 8.296875 
L 56.78125 8.296875 
L 56.78125 0 
L 9.8125 0 
z
" id="DejaVuSans-69"/>
      <path d="M 54.890625 54.6875 
L 35.109375 28.078125 
L 55.90625 0 
L 45.3125 0 
L 29.390625 21.484375 
L 13.484375 0 
L 2.875 0 
L 24.125 28.609375 
L 4.6875 54.6875 
L 15.28125 54.6875 
L 29.78125 35.203125 
L 44.28125 54.6875 
z
" id="DejaVuSans-120"/>
      <path d="M 48.78125 52.59375 
L 48.78125 44.1875 
Q 44.96875 46.296875 41.140625 47.34375 
Q 37.3125 48.390625 33.40625 48.390625 
Q 24.65625 48.390625 19.8125 42.84375 
Q 14.984375 37.3125 14.984375 27.296875 
Q 14.984375 17.28125 19.8125 11.734375 
Q 24.65625 6.203125 33.40625 6.203125 
Q 37.3125 6.203125 41.140625 7.25 
Q 44.96875 8.296875 48.78125 10.40625 
L 48.78125 2.09375 
Q 45.015625 0.34375 40.984375 -0.53125 
Q 36.96875 -1.421875 32.421875 -1.421875 
Q 20.0625 -1.421875 12.78125 6.34375 
Q 5.515625 14.109375 5.515625 27.296875 
Q 5.515625 40.671875 12.859375 48.328125 
Q 20.21875 56 33.015625 56 
Q 37.15625 56 41.109375 55.140625 
Q 45.0625 54.296875 48.78125 52.59375 
z
" id="DejaVuSans-99"/>
      <path d="M 18.3125 70.21875 
L 18.3125 54.6875 
L 36.8125 54.6875 
L 36.8125 47.703125 
L 18.3125 47.703125 
L 18.3125 18.015625 
Q 18.3125 11.328125 20.140625 9.421875 
Q 21.96875 7.515625 27.59375 7.515625 
L 36.8125 7.515625 
L 36.8125 0 
L 27.59375 0 
Q 17.1875 0 13.234375 3.875 
Q 9.28125 7.765625 9.28125 18.015625 
L 9.28125 47.703125 
L 2.6875 47.703125 
L 2.6875 54.6875 
L 9.28125 54.6875 
L 9.28125 70.21875 
z
" id="DejaVuSans-116"/>
      <path d="M 9.421875 54.6875 
L 18.40625 54.6875 
L 18.40625 0 
L 9.421875 0 
z
M 9.421875 75.984375 
L 18.40625 75.984375 
L 18.40625 64.59375 
L 9.421875 64.59375 
z
" id="DejaVuSans-105"/>
      <path d="M 54.890625 33.015625 
L 54.890625 0 
L 45.90625 0 
L 45.90625 32.71875 
Q 45.90625 40.484375 42.875 44.328125 
Q 39.84375 48.1875 33.796875 48.1875 
Q 26.515625 48.1875 22.3125 43.546875 
Q 18.109375 38.921875 18.109375 30.90625 
L 18.109375 0 
L 9.078125 0 
L 9.078125 54.6875 
L 18.109375 54.6875 
L 18.109375 46.1875 
Q 21.34375 51.125 25.703125 53.5625 
Q 30.078125 56 35.796875 56 
Q 45.21875 56 50.046875 50.171875 
Q 54.890625 44.34375 54.890625 33.015625 
z
" id="DejaVuSans-110"/>
      <path d="M 8.59375 75.984375 
L 29.296875 75.984375 
L 29.296875 69 
L 17.578125 69 
L 17.578125 -6.203125 
L 29.296875 -6.203125 
L 29.296875 -13.1875 
L 8.59375 -13.1875 
z
" id="DejaVuSans-91"/>
      <path d="M 30.421875 75.984375 
L 30.421875 -13.1875 
L 9.71875 -13.1875 
L 9.71875 -6.203125 
L 21.390625 -6.203125 
L 21.390625 69 
L 9.71875 69 
L 9.71875 75.984375 
z
" id="DejaVuSans-93"/>
     </defs>
     <use xlink:href="#DejaVuSans-69"/>
     <use x="63.183594" xlink:href="#DejaVuSans-120"/>
     <use x="119.238281" xlink:href="#DejaVuSans-101"/>
     <use x="180.761719" xlink:href="#DejaVuSans-99"/>
     <use x="235.742188" xlink:href="#DejaVuSans-117"/>
     <use x="299.121094" xlink:href="#DejaVuSans-116"/>
     <use x="338.330078" xlink:href="#DejaVuSans-105"/>
     <use x="366.113281" xlink:href="#DejaVuSans-111"/>
     <use x="427.294922" xlink:href="#DejaVuSans-110"/>
     <use x="490.673828" xlink:href="#DejaVuSans-32"/>
     <use x="522.460938" xlink:href="#DejaVuSans-116"/>
     <use x="561.669922" xlink:href="#DejaVuSans-105"/>
     <use x="589.453125" xlink:href="#DejaVuSans-109"/>
     <use x="686.865234" xlink:href="#DejaVuSans-101"/>
     <use x="748.388672" xlink:href="#DejaVuSans-32"/>
     <use x="780.175781" xlink:href="#DejaVuSans-91"/>
     <use x="819.189453" xlink:href="#DejaVuSans-109"/>
     <use x="916.601562" xlink:href="#DejaVuSans-105"/>
     <use x="944.384766" xlink:href="#DejaVuSans-110"/>
     <use x="1007.763672" xlink:href="#DejaVuSans-93"/>
    </g>
   </g>
  </g>
  <g id="axes_2">
   <g id="patch_7">
    <path d="M 217.107692 230.4 
L 336.184615 230.4 
L 336.184615 34.56 
L 217.107692 34.56 
z
" style="fill:none;"/>
   </g>
   <g id="matplotlib.axis_3">
    <g id="xtick_4">
     <g id="line2d_14">
      <g>
       <use style="stroke:#000000;stroke-width:0.8;" x="254.805889" xlink:href="#mc009b4b9b8" y="230.4"/>
      </g>
     </g>
     <g id="text_14">
      <!-- 1000 -->
      <g transform="translate(242.080889 244.998437)scale(0.1 -0.1)">
       <use xlink:href="#DejaVuSans-49"/>
       <use x="63.623047" xlink:href="#DejaVuSans-48"/>
       <use x="127.246094" xlink:href="#DejaVuSans-48"/>
       <use x="190.869141" xlink:href="#DejaVuSans-48"/>
      </g>
     </g>
    </g>
    <g id="xtick_5">
     <g id="line2d_15">
      <g>
       <use style="stroke:#000000;stroke-width:0.8;" x="292.788958" xlink:href="#mc009b4b9b8" y="230.4"/>
      </g>
     </g>
     <g id="text_15">
      <!-- 2000 -->
      <g transform="translate(280.063958 244.998437)scale(0.1 -0.1)">
       <use xlink:href="#DejaVuSans-50"/>
       <use x="63.623047" xlink:href="#DejaVuSans-48"/>
       <use x="127.246094" xlink:href="#DejaVuSans-48"/>
       <use x="190.869141" xlink:href="#DejaVuSans-48"/>
      </g>
     </g>
    </g>
    <g id="xtick_6">
     <g id="line2d_16">
      <g>
       <use style="stroke:#000000;stroke-width:0.8;" x="330.772028" xlink:href="#mc009b4b9b8" y="230.4"/>
      </g>
     </g>
     <g id="text_16">
      <!-- 3000 -->
      <g transform="translate(318.047028 244.998437)scale(0.1 -0.1)">
       <use xlink:href="#DejaVuSans-51"/>
       <use x="63.623047" xlink:href="#DejaVuSans-48"/>
       <use x="127.246094" xlink:href="#DejaVuSans-48"/>
       <use x="190.869141" xlink:href="#DejaVuSans-48"/>
      </g>
     </g>
    </g>
    <g id="text_17">
     <!-- Number of edges -->
     <g transform="translate(233.45631 258.676562)scale(0.1 -0.1)">
      <use xlink:href="#DejaVuSans-78"/>
      <use x="74.804688" xlink:href="#DejaVuSans-117"/>
      <use x="138.183594" xlink:href="#DejaVuSans-109"/>
      <use x="235.595703" xlink:href="#DejaVuSans-98"/>
      <use x="299.072266" xlink:href="#DejaVuSans-101"/>
      <use x="360.595703" xlink:href="#DejaVuSans-114"/>
      <use x="401.708984" xlink:href="#DejaVuSans-32"/>
      <use x="433.496094" xlink:href="#DejaVuSans-111"/>
      <use x="494.677734" xlink:href="#DejaVuSans-102"/>
      <use x="529.882812" xlink:href="#DejaVuSans-32"/>
      <use x="561.669922" xlink:href="#DejaVuSans-101"/>
      <use x="623.193359" xlink:href="#DejaVuSans-100"/>
      <use x="686.669922" xlink:href="#DejaVuSans-103"/>
      <use x="750.146484" xlink:href="#DejaVuSans-101"/>
      <use x="811.669922" xlink:href="#DejaVuSans-115"/>
     </g>
    </g>
   </g>
   <g id="matplotlib.axis_4">
    <g id="ytick_9">
     <g id="line2d_17">
      <g>
       <use style="stroke:#000000;stroke-width:0.8;" x="217.107692" xlink:href="#m96fd5dd437" y="204.411072"/>
      </g>
     </g>
     <g id="text_18">
      <!-- 200 -->
      <g transform="translate(191.020192 208.210291)scale(0.1 -0.1)">
       <use xlink:href="#DejaVuSans-50"/>
       <use x="63.623047" xlink:href="#DejaVuSans-48"/>
       <use x="127.246094" xlink:href="#DejaVuSans-48"/>
      </g>
     </g>
    </g>
    <g id="ytick_10">
     <g id="line2d_18">
      <g>
       <use style="stroke:#000000;stroke-width:0.8;" x="217.107692" xlink:href="#m96fd5dd437" y="167.533744"/>
      </g>
     </g>
     <g id="text_19">
      <!-- 400 -->
      <g transform="translate(191.020192 171.332963)scale(0.1 -0.1)">
       <defs>
        <path d="M 37.796875 64.3125 
L 12.890625 25.390625 
L 37.796875 25.390625 
z
M 35.203125 72.90625 
L 47.609375 72.90625 
L 47.609375 25.390625 
L 58.015625 25.390625 
L 58.015625 17.1875 
L 47.609375 17.1875 
L 47.609375 0 
L 37.796875 0 
L 37.796875 17.1875 
L 4.890625 17.1875 
L 4.890625 26.703125 
z
" id="DejaVuSans-52"/>
       </defs>
       <use xlink:href="#DejaVuSans-52"/>
       <use x="63.623047" xlink:href="#DejaVuSans-48"/>
       <use x="127.246094" xlink:href="#DejaVuSans-48"/>
      </g>
     </g>
    </g>
    <g id="ytick_11">
     <g id="line2d_19">
      <g>
       <use style="stroke:#000000;stroke-width:0.8;" x="217.107692" xlink:href="#m96fd5dd437" y="130.656416"/>
      </g>
     </g>
     <g id="text_20">
      <!-- 600 -->
      <g transform="translate(191.020192 134.455635)scale(0.1 -0.1)">
       <defs>
        <path d="M 33.015625 40.375 
Q 26.375 40.375 22.484375 35.828125 
Q 18.609375 31.296875 18.609375 23.390625 
Q 18.609375 15.53125 22.484375 10.953125 
Q 26.375 6.390625 33.015625 6.390625 
Q 39.65625 6.390625 43.53125 10.953125 
Q 47.40625 15.53125 47.40625 23.390625 
Q 47.40625 31.296875 43.53125 35.828125 
Q 39.65625 40.375 33.015625 40.375 
z
M 52.59375 71.296875 
L 52.59375 62.3125 
Q 48.875 64.0625 45.09375 64.984375 
Q 41.3125 65.921875 37.59375 65.921875 
Q 27.828125 65.921875 22.671875 59.328125 
Q 17.53125 52.734375 16.796875 39.40625 
Q 19.671875 43.65625 24.015625 45.921875 
Q 28.375 48.1875 33.59375 48.1875 
Q 44.578125 48.1875 50.953125 41.515625 
Q 57.328125 34.859375 57.328125 23.390625 
Q 57.328125 12.15625 50.6875 5.359375 
Q 44.046875 -1.421875 33.015625 -1.421875 
Q 20.359375 -1.421875 13.671875 8.265625 
Q 6.984375 17.96875 6.984375 36.375 
Q 6.984375 53.65625 15.1875 63.9375 
Q 23.390625 74.21875 37.203125 74.21875 
Q 40.921875 74.21875 44.703125 73.484375 
Q 48.484375 72.75 52.59375 71.296875 
z
" id="DejaVuSans-54"/>
       </defs>
       <use xlink:href="#DejaVuSans-54"/>
       <use x="63.623047" xlink:href="#DejaVuSans-48"/>
       <use x="127.246094" xlink:href="#DejaVuSans-48"/>
      </g>
     </g>
    </g>
    <g id="ytick_12">
     <g id="line2d_20">
      <g>
       <use style="stroke:#000000;stroke-width:0.8;" x="217.107692" xlink:href="#m96fd5dd437" y="93.779088"/>
      </g>
     </g>
     <g id="text_21">
      <!-- 800 -->
      <g transform="translate(191.020192 97.578307)scale(0.1 -0.1)">
       <defs>
        <path d="M 31.78125 34.625 
Q 24.75 34.625 20.71875 30.859375 
Q 16.703125 27.09375 16.703125 20.515625 
Q 16.703125 13.921875 20.71875 10.15625 
Q 24.75 6.390625 31.78125 6.390625 
Q 38.8125 6.390625 42.859375 10.171875 
Q 46.921875 13.96875 46.921875 20.515625 
Q 46.921875 27.09375 42.890625 30.859375 
Q 38.875 34.625 31.78125 34.625 
z
M 21.921875 38.8125 
Q 15.578125 40.375 12.03125 44.71875 
Q 8.5 49.078125 8.5 55.328125 
Q 8.5 64.0625 14.71875 69.140625 
Q 20.953125 74.21875 31.78125 74.21875 
Q 42.671875 74.21875 48.875 69.140625 
Q 55.078125 64.0625 55.078125 55.328125 
Q 55.078125 49.078125 51.53125 44.71875 
Q 48 40.375 41.703125 38.8125 
Q 48.828125 37.15625 52.796875 32.3125 
Q 56.78125 27.484375 56.78125 20.515625 
Q 56.78125 9.90625 50.3125 4.234375 
Q 43.84375 -1.421875 31.78125 -1.421875 
Q 19.734375 -1.421875 13.25 4.234375 
Q 6.78125 9.90625 6.78125 20.515625 
Q 6.78125 27.484375 10.78125 32.3125 
Q 14.796875 37.15625 21.921875 38.8125 
z
M 18.3125 54.390625 
Q 18.3125 48.734375 21.84375 45.5625 
Q 25.390625 42.390625 31.78125 42.390625 
Q 38.140625 42.390625 41.71875 45.5625 
Q 45.3125 48.734375 45.3125 54.390625 
Q 45.3125 60.0625 41.71875 63.234375 
Q 38.140625 66.40625 31.78125 66.40625 
Q 25.390625 66.40625 21.84375 63.234375 
Q 18.3125 60.0625 18.3125 54.390625 
z
" id="DejaVuSans-56"/>
       </defs>
       <use xlink:href="#DejaVuSans-56"/>
       <use x="63.623047" xlink:href="#DejaVuSans-48"/>
       <use x="127.246094" xlink:href="#DejaVuSans-48"/>
      </g>
     </g>
    </g>
    <g id="ytick_13">
     <g id="line2d_21">
      <g>
       <use style="stroke:#000000;stroke-width:0.8;" x="217.107692" xlink:href="#m96fd5dd437" y="56.90176"/>
      </g>
     </g>
     <g id="text_22">
      <!-- 1000 -->
      <g transform="translate(184.657692 60.700979)scale(0.1 -0.1)">
       <use xlink:href="#DejaVuSans-49"/>
       <use x="63.623047" xlink:href="#DejaVuSans-48"/>
       <use x="127.246094" xlink:href="#DejaVuSans-48"/>
       <use x="190.869141" xlink:href="#DejaVuSans-48"/>
      </g>
     </g>
    </g>
   </g>
   <g id="line2d_22">
    <path clip-path="url(#p7571a0143f)" d="M 222.52028 221.498182 
L 228.21774 219.48468 
L 233.915201 216.383296 
L 239.612661 215.973958 
L 245.310121 212.767474 
L 251.007582 198.405599 
L 256.705042 196.659458 
L 262.402503 186.763427 
L 268.099963 192.909033 
L 273.797424 190.61342 
L 279.494884 186.035099 
L 285.192344 179.734608 
L 290.889805 157.648776 
L 296.587265 176.858176 
L 302.284726 176.192541 
L 307.982186 92.374062 
L 313.679647 152.589207 
L 319.377107 63.838386 
L 325.074568 43.461818 
L 330.772028 111.570555 
" style="fill:none;stroke:#1f77b4;stroke-linecap:square;stroke-width:1.5;"/>
    <g clip-path="url(#p7571a0143f)">
     <use style="fill:#1f77b4;stroke:#1f77b4;" x="222.52028" xlink:href="#m08941b10a9" y="221.498182"/>
     <use style="fill:#1f77b4;stroke:#1f77b4;" x="228.21774" xlink:href="#m08941b10a9" y="219.48468"/>
     <use style="fill:#1f77b4;stroke:#1f77b4;" x="233.915201" xlink:href="#m08941b10a9" y="216.383296"/>
     <use style="fill:#1f77b4;stroke:#1f77b4;" x="239.612661" xlink:href="#m08941b10a9" y="215.973958"/>
     <use style="fill:#1f77b4;stroke:#1f77b4;" x="245.310121" xlink:href="#m08941b10a9" y="212.767474"/>
     <use style="fill:#1f77b4;stroke:#1f77b4;" x="251.007582" xlink:href="#m08941b10a9" y="198.405599"/>
     <use style="fill:#1f77b4;stroke:#1f77b4;" x="256.705042" xlink:href="#m08941b10a9" y="196.659458"/>
     <use style="fill:#1f77b4;stroke:#1f77b4;" x="262.402503" xlink:href="#m08941b10a9" y="186.763427"/>
     <use style="fill:#1f77b4;stroke:#1f77b4;" x="268.099963" xlink:href="#m08941b10a9" y="192.909033"/>
     <use style="fill:#1f77b4;stroke:#1f77b4;" x="273.797424" xlink:href="#m08941b10a9" y="190.61342"/>
     <use style="fill:#1f77b4;stroke:#1f77b4;" x="279.494884" xlink:href="#m08941b10a9" y="186.035099"/>
     <use style="fill:#1f77b4;stroke:#1f77b4;" x="285.192344" xlink:href="#m08941b10a9" y="179.734608"/>
     <use style="fill:#1f77b4;stroke:#1f77b4;" x="290.889805" xlink:href="#m08941b10a9" y="157.648776"/>
     <use style="fill:#1f77b4;stroke:#1f77b4;" x="296.587265" xlink:href="#m08941b10a9" y="176.858176"/>
     <use style="fill:#1f77b4;stroke:#1f77b4;" x="302.284726" xlink:href="#m08941b10a9" y="176.192541"/>
     <use style="fill:#1f77b4;stroke:#1f77b4;" x="307.982186" xlink:href="#m08941b10a9" y="92.374062"/>
     <use style="fill:#1f77b4;stroke:#1f77b4;" x="313.679647" xlink:href="#m08941b10a9" y="152.589207"/>
     <use style="fill:#1f77b4;stroke:#1f77b4;" x="319.377107" xlink:href="#m08941b10a9" y="63.838386"/>
     <use style="fill:#1f77b4;stroke:#1f77b4;" x="325.074568" xlink:href="#m08941b10a9" y="43.461818"/>
     <use style="fill:#1f77b4;stroke:#1f77b4;" x="330.772028" xlink:href="#m08941b10a9" y="111.570555"/>
    </g>
   </g>
   <g id="line2d_23">
    <path clip-path="url(#p7571a0143f)" d="M 222.52028 220.288605 
L 228.21774 213.713378 
L 233.915201 212.308352 
L 239.612661 209.787786 
L 245.310121 206.330537 
L 251.007582 205.672277 
L 256.705042 203.465168 
L 262.402503 200.339815 
L 268.099963 199.959978 
L 273.797424 180.108913 
L 279.494884 195.058982 
L 285.192344 172.429209 
L 290.889805 146.902723 
L 296.587265 172.460555 
L 302.284726 157.787066 
L 307.982186 143.757087 
L 313.679647 175.447619 
L 319.377107 108.491298 
L 325.074568 147.74537 
L 330.772028 122.32214 
" style="fill:none;stroke:#ff7f0e;stroke-dasharray:5.55,2.4;stroke-dashoffset:0;stroke-width:1.5;"/>
    <g clip-path="url(#p7571a0143f)">
     <use style="fill:#ff7f0e;stroke:#ff7f0e;stroke-linejoin:miter;" x="222.52028" xlink:href="#mbcdd148858" y="220.288605"/>
     <use style="fill:#ff7f0e;stroke:#ff7f0e;stroke-linejoin:miter;" x="228.21774" xlink:href="#mbcdd148858" y="213.713378"/>
     <use style="fill:#ff7f0e;stroke:#ff7f0e;stroke-linejoin:miter;" x="233.915201" xlink:href="#mbcdd148858" y="212.308352"/>
     <use style="fill:#ff7f0e;stroke:#ff7f0e;stroke-linejoin:miter;" x="239.612661" xlink:href="#mbcdd148858" y="209.787786"/>
     <use style="fill:#ff7f0e;stroke:#ff7f0e;stroke-linejoin:miter;" x="245.310121" xlink:href="#mbcdd148858" y="206.330537"/>
     <use style="fill:#ff7f0e;stroke:#ff7f0e;stroke-linejoin:miter;" x="251.007582" xlink:href="#mbcdd148858" y="205.672277"/>
     <use style="fill:#ff7f0e;stroke:#ff7f0e;stroke-linejoin:miter;" x="256.705042" xlink:href="#mbcdd148858" y="203.465168"/>
     <use style="fill:#ff7f0e;stroke:#ff7f0e;stroke-linejoin:miter;" x="262.402503" xlink:href="#mbcdd148858" y="200.339815"/>
     <use style="fill:#ff7f0e;stroke:#ff7f0e;stroke-linejoin:miter;" x="268.099963" xlink:href="#mbcdd148858" y="199.959978"/>
     <use style="fill:#ff7f0e;stroke:#ff7f0e;stroke-linejoin:miter;" x="273.797424" xlink:href="#mbcdd148858" y="180.108913"/>
     <use style="fill:#ff7f0e;stroke:#ff7f0e;stroke-linejoin:miter;" x="279.494884" xlink:href="#mbcdd148858" y="195.058982"/>
     <use style="fill:#ff7f0e;stroke:#ff7f0e;stroke-linejoin:miter;" x="285.192344" xlink:href="#mbcdd148858" y="172.429209"/>
     <use style="fill:#ff7f0e;stroke:#ff7f0e;stroke-linejoin:miter;" x="290.889805" xlink:href="#mbcdd148858" y="146.902723"/>
     <use style="fill:#ff7f0e;stroke:#ff7f0e;stroke-linejoin:miter;" x="296.587265" xlink:href="#mbcdd148858" y="172.460555"/>
     <use style="fill:#ff7f0e;stroke:#ff7f0e;stroke-linejoin:miter;" x="302.284726" xlink:href="#mbcdd148858" y="157.787066"/>
     <use style="fill:#ff7f0e;stroke:#ff7f0e;stroke-linejoin:miter;" x="307.982186" xlink:href="#mbcdd148858" y="143.757087"/>
     <use style="fill:#ff7f0e;stroke:#ff7f0e;stroke-linejoin:miter;" x="313.679647" xlink:href="#mbcdd148858" y="175.447619"/>
     <use style="fill:#ff7f0e;stroke:#ff7f0e;stroke-linejoin:miter;" x="319.377107" xlink:href="#mbcdd148858" y="108.491298"/>
     <use style="fill:#ff7f0e;stroke:#ff7f0e;stroke-linejoin:miter;" x="325.074568" xlink:href="#mbcdd148858" y="147.74537"/>
     <use style="fill:#ff7f0e;stroke:#ff7f0e;stroke-linejoin:miter;" x="330.772028" xlink:href="#mbcdd148858" y="122.32214"/>
    </g>
   </g>
   <g id="patch_8">
    <path d="M 217.107692 230.4 
L 217.107692 34.56 
" style="fill:none;stroke:#000000;stroke-linecap:square;stroke-linejoin:miter;stroke-width:0.8;"/>
   </g>
   <g id="patch_9">
    <path d="M 336.184615 230.4 
L 336.184615 34.56 
" style="fill:none;stroke:#000000;stroke-linecap:square;stroke-linejoin:miter;stroke-width:0.8;"/>
   </g>
   <g id="patch_10">
    <path d="M 217.107692 230.4 
L 336.184615 230.4 
" style="fill:none;stroke:#000000;stroke-linecap:square;stroke-linejoin:miter;stroke-width:0.8;"/>
   </g>
   <g id="patch_11">
    <path d="M 217.107692 34.56 
L 336.184615 34.56 
" style="fill:none;stroke:#000000;stroke-linecap:square;stroke-linejoin:miter;stroke-width:0.8;"/>
   </g>
   <g id="text_23">
    <!-- Memory [MB] -->
    <g transform="translate(236.361779 28.56)scale(0.12 -0.12)">
     <defs>
      <path d="M 9.8125 72.90625 
L 24.515625 72.90625 
L 43.109375 23.296875 
L 61.8125 72.90625 
L 76.515625 72.90625 
L 76.515625 0 
L 66.890625 0 
L 66.890625 64.015625 
L 48.09375 14.015625 
L 38.1875 14.015625 
L 19.390625 64.015625 
L 19.390625 0 
L 9.8125 0 
z
" id="DejaVuSans-77"/>
      <path d="M 32.171875 -5.078125 
Q 28.375 -14.84375 24.75 -17.8125 
Q 21.140625 -20.796875 15.09375 -20.796875 
L 7.90625 -20.796875 
L 7.90625 -13.28125 
L 13.1875 -13.28125 
Q 16.890625 -13.28125 18.9375 -11.515625 
Q 21 -9.765625 23.484375 -3.21875 
L 25.09375 0.875 
L 2.984375 54.6875 
L 12.5 54.6875 
L 29.59375 11.921875 
L 46.6875 54.6875 
L 56.203125 54.6875 
z
" id="DejaVuSans-121"/>
      <path d="M 19.671875 34.8125 
L 19.671875 8.109375 
L 35.5 8.109375 
Q 43.453125 8.109375 47.28125 11.40625 
Q 51.125 14.703125 51.125 21.484375 
Q 51.125 28.328125 47.28125 31.5625 
Q 43.453125 34.8125 35.5 34.8125 
z
M 19.671875 64.796875 
L 19.671875 42.828125 
L 34.28125 42.828125 
Q 41.5 42.828125 45.03125 45.53125 
Q 48.578125 48.25 48.578125 53.8125 
Q 48.578125 59.328125 45.03125 62.0625 
Q 41.5 64.796875 34.28125 64.796875 
z
M 9.8125 72.90625 
L 35.015625 72.90625 
Q 46.296875 72.90625 52.390625 68.21875 
Q 58.5 63.53125 58.5 54.890625 
Q 58.5 48.1875 55.375 44.234375 
Q 52.25 40.28125 46.1875 39.3125 
Q 53.46875 37.75 57.5 32.78125 
Q 61.53125 27.828125 61.53125 20.40625 
Q 61.53125 10.640625 54.890625 5.3125 
Q 48.25 0 35.984375 0 
L 9.8125 0 
z
" id="DejaVuSans-66"/>
     </defs>
     <use xlink:href="#DejaVuSans-77"/>
     <use x="86.279297" xlink:href="#DejaVuSans-101"/>
     <use x="147.802734" xlink:href="#DejaVuSans-109"/>
     <use x="245.214844" xlink:href="#DejaVuSans-111"/>
     <use x="306.396484" xlink:href="#DejaVuSans-114"/>
     <use x="347.509766" xlink:href="#DejaVuSans-121"/>
     <use x="406.689453" xlink:href="#DejaVuSans-32"/>
     <use x="438.476562" xlink:href="#DejaVuSans-91"/>
     <use x="477.490234" xlink:href="#DejaVuSans-77"/>
     <use x="563.769531" xlink:href="#DejaVuSans-66"/>
     <use x="632.373047" xlink:href="#DejaVuSans-93"/>
    </g>
   </g>
  </g>
  <g id="axes_3">
   <g id="patch_12">
    <path d="M 383.815385 230.4 
L 502.892308 230.4 
L 502.892308 34.56 
L 383.815385 34.56 
z
" style="fill:none;"/>
   </g>
   <g id="matplotlib.axis_5">
    <g id="xtick_7">
     <g id="line2d_24">
      <g>
       <use style="stroke:#000000;stroke-width:0.8;" x="421.513581" xlink:href="#mc009b4b9b8" y="230.4"/>
      </g>
     </g>
     <g id="text_24">
      <!-- 1000 -->
      <g transform="translate(408.788581 244.998437)scale(0.1 -0.1)">
       <use xlink:href="#DejaVuSans-49"/>
       <use x="63.623047" xlink:href="#DejaVuSans-48"/>
       <use x="127.246094" xlink:href="#DejaVuSans-48"/>
       <use x="190.869141" xlink:href="#DejaVuSans-48"/>
      </g>
     </g>
    </g>
    <g id="xtick_8">
     <g id="line2d_25">
      <g>
       <use style="stroke:#000000;stroke-width:0.8;" x="459.496651" xlink:href="#mc009b4b9b8" y="230.4"/>
      </g>
     </g>
     <g id="text_25">
      <!-- 2000 -->
      <g transform="translate(446.771651 244.998437)scale(0.1 -0.1)">
       <use xlink:href="#DejaVuSans-50"/>
       <use x="63.623047" xlink:href="#DejaVuSans-48"/>
       <use x="127.246094" xlink:href="#DejaVuSans-48"/>
       <use x="190.869141" xlink:href="#DejaVuSans-48"/>
      </g>
     </g>
    </g>
    <g id="xtick_9">
     <g id="line2d_26">
      <g>
       <use style="stroke:#000000;stroke-width:0.8;" x="497.47972" xlink:href="#mc009b4b9b8" y="230.4"/>
      </g>
     </g>
     <g id="text_26">
      <!-- 3000 -->
      <g transform="translate(484.75472 244.998437)scale(0.1 -0.1)">
       <use xlink:href="#DejaVuSans-51"/>
       <use x="63.623047" xlink:href="#DejaVuSans-48"/>
       <use x="127.246094" xlink:href="#DejaVuSans-48"/>
       <use x="190.869141" xlink:href="#DejaVuSans-48"/>
      </g>
     </g>
    </g>
    <g id="text_27">
     <!-- Number of edges -->
     <g transform="translate(400.164002 258.676562)scale(0.1 -0.1)">
      <use xlink:href="#DejaVuSans-78"/>
      <use x="74.804688" xlink:href="#DejaVuSans-117"/>
      <use x="138.183594" xlink:href="#DejaVuSans-109"/>
      <use x="235.595703" xlink:href="#DejaVuSans-98"/>
      <use x="299.072266" xlink:href="#DejaVuSans-101"/>
      <use x="360.595703" xlink:href="#DejaVuSans-114"/>
      <use x="401.708984" xlink:href="#DejaVuSans-32"/>
      <use x="433.496094" xlink:href="#DejaVuSans-111"/>
      <use x="494.677734" xlink:href="#DejaVuSans-102"/>
      <use x="529.882812" xlink:href="#DejaVuSans-32"/>
      <use x="561.669922" xlink:href="#DejaVuSans-101"/>
      <use x="623.193359" xlink:href="#DejaVuSans-100"/>
      <use x="686.669922" xlink:href="#DejaVuSans-103"/>
      <use x="750.146484" xlink:href="#DejaVuSans-101"/>
      <use x="811.669922" xlink:href="#DejaVuSans-115"/>
     </g>
    </g>
   </g>
   <g id="matplotlib.axis_6">
    <g id="ytick_14">
     <g id="line2d_27">
      <g>
       <use style="stroke:#000000;stroke-width:0.8;" x="383.815385" xlink:href="#m96fd5dd437" y="227.061818"/>
      </g>
     </g>
     <g id="text_28">
      <!-- 3.5 -->
      <g transform="translate(360.91226 230.861037)scale(0.1 -0.1)">
       <defs>
        <path d="M 10.6875 12.40625 
L 21 12.40625 
L 21 0 
L 10.6875 0 
z
" id="DejaVuSans-46"/>
       </defs>
       <use xlink:href="#DejaVuSans-51"/>
       <use x="63.623047" xlink:href="#DejaVuSans-46"/>
       <use x="95.410156" xlink:href="#DejaVuSans-53"/>
      </g>
     </g>
    </g>
    <g id="ytick_15">
     <g id="line2d_28">
      <g>
       <use style="stroke:#000000;stroke-width:0.8;" x="383.815385" xlink:href="#m96fd5dd437" y="199.243636"/>
      </g>
     </g>
     <g id="text_29">
      <!-- 4.0 -->
      <g transform="translate(360.91226 203.042855)scale(0.1 -0.1)">
       <use xlink:href="#DejaVuSans-52"/>
       <use x="63.623047" xlink:href="#DejaVuSans-46"/>
       <use x="95.410156" xlink:href="#DejaVuSans-48"/>
      </g>
     </g>
    </g>
    <g id="ytick_16">
     <g id="line2d_29">
      <g>
       <use style="stroke:#000000;stroke-width:0.8;" x="383.815385" xlink:href="#m96fd5dd437" y="171.425455"/>
      </g>
     </g>
     <g id="text_30">
      <!-- 4.5 -->
      <g transform="translate(360.91226 175.224673)scale(0.1 -0.1)">
       <use xlink:href="#DejaVuSans-52"/>
       <use x="63.623047" xlink:href="#DejaVuSans-46"/>
       <use x="95.410156" xlink:href="#DejaVuSans-53"/>
      </g>
     </g>
    </g>
    <g id="ytick_17">
     <g id="line2d_30">
      <g>
       <use style="stroke:#000000;stroke-width:0.8;" x="383.815385" xlink:href="#m96fd5dd437" y="143.607273"/>
      </g>
     </g>
     <g id="text_31">
      <!-- 5.0 -->
      <g transform="translate(360.91226 147.406491)scale(0.1 -0.1)">
       <use xlink:href="#DejaVuSans-53"/>
       <use x="63.623047" xlink:href="#DejaVuSans-46"/>
       <use x="95.410156" xlink:href="#DejaVuSans-48"/>
      </g>
     </g>
    </g>
    <g id="ytick_18">
     <g id="line2d_31">
      <g>
       <use style="stroke:#000000;stroke-width:0.8;" x="383.815385" xlink:href="#m96fd5dd437" y="115.789091"/>
      </g>
     </g>
     <g id="text_32">
      <!-- 5.5 -->
      <g transform="translate(360.91226 119.58831)scale(0.1 -0.1)">
       <use xlink:href="#DejaVuSans-53"/>
       <use x="63.623047" xlink:href="#DejaVuSans-46"/>
       <use x="95.410156" xlink:href="#DejaVuSans-53"/>
      </g>
     </g>
    </g>
    <g id="ytick_19">
     <g id="line2d_32">
      <g>
       <use style="stroke:#000000;stroke-width:0.8;" x="383.815385" xlink:href="#m96fd5dd437" y="87.970909"/>
      </g>
     </g>
     <g id="text_33">
      <!-- 6.0 -->
      <g transform="translate(360.91226 91.770128)scale(0.1 -0.1)">
       <use xlink:href="#DejaVuSans-54"/>
       <use x="63.623047" xlink:href="#DejaVuSans-46"/>
       <use x="95.410156" xlink:href="#DejaVuSans-48"/>
      </g>
     </g>
    </g>
    <g id="ytick_20">
     <g id="line2d_33">
      <g>
       <use style="stroke:#000000;stroke-width:0.8;" x="383.815385" xlink:href="#m96fd5dd437" y="60.152727"/>
      </g>
     </g>
     <g id="text_34">
      <!-- 6.5 -->
      <g transform="translate(360.91226 63.951946)scale(0.1 -0.1)">
       <use xlink:href="#DejaVuSans-54"/>
       <use x="63.623047" xlink:href="#DejaVuSans-46"/>
       <use x="95.410156" xlink:href="#DejaVuSans-53"/>
      </g>
     </g>
    </g>
   </g>
   <g id="line2d_34">
    <path clip-path="url(#pae83c3b419)" d="M 389.227972 188.116364 
L 394.925432 199.243636 
L 400.622893 210.370909 
L 406.320353 221.498182 
L 412.017814 110.225455 
L 417.715274 154.734545 
L 423.412735 154.734545 
L 429.110195 154.734545 
L 434.807656 99.098182 
L 440.505116 132.48 
L 446.202576 154.734545 
L 451.900037 132.48 
L 457.597497 43.461818 
L 463.294958 143.607273 
L 468.992418 110.225455 
L 474.689879 87.970909 
L 480.387339 121.352727 
L 486.084799 87.97091 
L 491.78226 65.716364 
L 497.47972 76.843636 
" style="fill:none;stroke:#1f77b4;stroke-linecap:square;stroke-width:1.5;"/>
    <g clip-path="url(#pae83c3b419)">
     <use style="fill:#1f77b4;stroke:#1f77b4;" x="389.227972" xlink:href="#m08941b10a9" y="188.116364"/>
     <use style="fill:#1f77b4;stroke:#1f77b4;" x="394.925432" xlink:href="#m08941b10a9" y="199.243636"/>
     <use style="fill:#1f77b4;stroke:#1f77b4;" x="400.622893" xlink:href="#m08941b10a9" y="210.370909"/>
     <use style="fill:#1f77b4;stroke:#1f77b4;" x="406.320353" xlink:href="#m08941b10a9" y="221.498182"/>
     <use style="fill:#1f77b4;stroke:#1f77b4;" x="412.017814" xlink:href="#m08941b10a9" y="110.225455"/>
     <use style="fill:#1f77b4;stroke:#1f77b4;" x="417.715274" xlink:href="#m08941b10a9" y="154.734545"/>
     <use style="fill:#1f77b4;stroke:#1f77b4;" x="423.412735" xlink:href="#m08941b10a9" y="154.734545"/>
     <use style="fill:#1f77b4;stroke:#1f77b4;" x="429.110195" xlink:href="#m08941b10a9" y="154.734545"/>
     <use style="fill:#1f77b4;stroke:#1f77b4;" x="434.807656" xlink:href="#m08941b10a9" y="99.098182"/>
     <use style="fill:#1f77b4;stroke:#1f77b4;" x="440.505116" xlink:href="#m08941b10a9" y="132.48"/>
     <use style="fill:#1f77b4;stroke:#1f77b4;" x="446.202576" xlink:href="#m08941b10a9" y="154.734545"/>
     <use style="fill:#1f77b4;stroke:#1f77b4;" x="451.900037" xlink:href="#m08941b10a9" y="132.48"/>
     <use style="fill:#1f77b4;stroke:#1f77b4;" x="457.597497" xlink:href="#m08941b10a9" y="43.461818"/>
     <use style="fill:#1f77b4;stroke:#1f77b4;" x="463.294958" xlink:href="#m08941b10a9" y="143.607273"/>
     <use style="fill:#1f77b4;stroke:#1f77b4;" x="468.992418" xlink:href="#m08941b10a9" y="110.225455"/>
     <use style="fill:#1f77b4;stroke:#1f77b4;" x="474.689879" xlink:href="#m08941b10a9" y="87.970909"/>
     <use style="fill:#1f77b4;stroke:#1f77b4;" x="480.387339" xlink:href="#m08941b10a9" y="121.352727"/>
     <use style="fill:#1f77b4;stroke:#1f77b4;" x="486.084799" xlink:href="#m08941b10a9" y="87.97091"/>
     <use style="fill:#1f77b4;stroke:#1f77b4;" x="491.78226" xlink:href="#m08941b10a9" y="65.716364"/>
     <use style="fill:#1f77b4;stroke:#1f77b4;" x="497.47972" xlink:href="#m08941b10a9" y="76.843636"/>
    </g>
   </g>
   <g id="line2d_35">
    <path clip-path="url(#pae83c3b419)" d="M 389.227972 188.116364 
L 394.925432 199.243636 
L 400.622893 210.370909 
L 406.320353 221.498182 
L 412.017814 110.225455 
L 417.715274 154.734545 
L 423.412735 154.734545 
L 429.110195 154.734545 
L 434.807656 99.098182 
L 440.505116 132.48 
L 446.202576 154.734545 
L 451.900037 132.48 
L 457.597497 43.461818 
L 463.294958 143.607273 
L 468.992418 110.225455 
L 474.689879 87.970909 
L 480.387339 121.352727 
L 486.084799 87.970909 
L 491.78226 65.716364 
L 497.47972 76.843636 
" style="fill:none;stroke:#ff7f0e;stroke-dasharray:5.55,2.4;stroke-dashoffset:0;stroke-width:1.5;"/>
    <g clip-path="url(#pae83c3b419)">
     <use style="fill:#ff7f0e;stroke:#ff7f0e;stroke-linejoin:miter;" x="389.227972" xlink:href="#mbcdd148858" y="188.116364"/>
     <use style="fill:#ff7f0e;stroke:#ff7f0e;stroke-linejoin:miter;" x="394.925432" xlink:href="#mbcdd148858" y="199.243636"/>
     <use style="fill:#ff7f0e;stroke:#ff7f0e;stroke-linejoin:miter;" x="400.622893" xlink:href="#mbcdd148858" y="210.370909"/>
     <use style="fill:#ff7f0e;stroke:#ff7f0e;stroke-linejoin:miter;" x="406.320353" xlink:href="#mbcdd148858" y="221.498182"/>
     <use style="fill:#ff7f0e;stroke:#ff7f0e;stroke-linejoin:miter;" x="412.017814" xlink:href="#mbcdd148858" y="110.225455"/>
     <use style="fill:#ff7f0e;stroke:#ff7f0e;stroke-linejoin:miter;" x="417.715274" xlink:href="#mbcdd148858" y="154.734545"/>
     <use style="fill:#ff7f0e;stroke:#ff7f0e;stroke-linejoin:miter;" x="423.412735" xlink:href="#mbcdd148858" y="154.734545"/>
     <use style="fill:#ff7f0e;stroke:#ff7f0e;stroke-linejoin:miter;" x="429.110195" xlink:href="#mbcdd148858" y="154.734545"/>
     <use style="fill:#ff7f0e;stroke:#ff7f0e;stroke-linejoin:miter;" x="434.807656" xlink:href="#mbcdd148858" y="99.098182"/>
     <use style="fill:#ff7f0e;stroke:#ff7f0e;stroke-linejoin:miter;" x="440.505116" xlink:href="#mbcdd148858" y="132.48"/>
     <use style="fill:#ff7f0e;stroke:#ff7f0e;stroke-linejoin:miter;" x="446.202576" xlink:href="#mbcdd148858" y="154.734545"/>
     <use style="fill:#ff7f0e;stroke:#ff7f0e;stroke-linejoin:miter;" x="451.900037" xlink:href="#mbcdd148858" y="132.48"/>
     <use style="fill:#ff7f0e;stroke:#ff7f0e;stroke-linejoin:miter;" x="457.597497" xlink:href="#mbcdd148858" y="43.461818"/>
     <use style="fill:#ff7f0e;stroke:#ff7f0e;stroke-linejoin:miter;" x="463.294958" xlink:href="#mbcdd148858" y="143.607273"/>
     <use style="fill:#ff7f0e;stroke:#ff7f0e;stroke-linejoin:miter;" x="468.992418" xlink:href="#mbcdd148858" y="110.225455"/>
     <use style="fill:#ff7f0e;stroke:#ff7f0e;stroke-linejoin:miter;" x="474.689879" xlink:href="#mbcdd148858" y="87.970909"/>
     <use style="fill:#ff7f0e;stroke:#ff7f0e;stroke-linejoin:miter;" x="480.387339" xlink:href="#mbcdd148858" y="121.352727"/>
     <use style="fill:#ff7f0e;stroke:#ff7f0e;stroke-linejoin:miter;" x="486.084799" xlink:href="#mbcdd148858" y="87.970909"/>
     <use style="fill:#ff7f0e;stroke:#ff7f0e;stroke-linejoin:miter;" x="491.78226" xlink:href="#mbcdd148858" y="65.716364"/>
     <use style="fill:#ff7f0e;stroke:#ff7f0e;stroke-linejoin:miter;" x="497.47972" xlink:href="#mbcdd148858" y="76.843636"/>
    </g>
   </g>
   <g id="patch_13">
    <path d="M 383.815385 230.4 
L 383.815385 34.56 
" style="fill:none;stroke:#000000;stroke-linecap:square;stroke-linejoin:miter;stroke-width:0.8;"/>
   </g>
   <g id="patch_14">
    <path d="M 502.892308 230.4 
L 502.892308 34.56 
" style="fill:none;stroke:#000000;stroke-linecap:square;stroke-linejoin:miter;stroke-width:0.8;"/>
   </g>
   <g id="patch_15">
    <path d="M 383.815385 230.4 
L 502.892308 230.4 
" style="fill:none;stroke:#000000;stroke-linecap:square;stroke-linejoin:miter;stroke-width:0.8;"/>
   </g>
   <g id="patch_16">
    <path d="M 383.815385 34.56 
L 502.892308 34.56 
" style="fill:none;stroke:#000000;stroke-linecap:square;stroke-linejoin:miter;stroke-width:0.8;"/>
   </g>
   <g id="text_35">
    <!-- Obj. value -->
    <g transform="translate(412.951659 28.56)scale(0.12 -0.12)">
     <defs>
      <path d="M 39.40625 66.21875 
Q 28.65625 66.21875 22.328125 58.203125 
Q 16.015625 50.203125 16.015625 36.375 
Q 16.015625 22.609375 22.328125 14.59375 
Q 28.65625 6.59375 39.40625 6.59375 
Q 50.140625 6.59375 56.421875 14.59375 
Q 62.703125 22.609375 62.703125 36.375 
Q 62.703125 50.203125 56.421875 58.203125 
Q 50.140625 66.21875 39.40625 66.21875 
z
M 39.40625 74.21875 
Q 54.734375 74.21875 63.90625 63.9375 
Q 73.09375 53.65625 73.09375 36.375 
Q 73.09375 19.140625 63.90625 8.859375 
Q 54.734375 -1.421875 39.40625 -1.421875 
Q 24.03125 -1.421875 14.8125 8.828125 
Q 5.609375 19.09375 5.609375 36.375 
Q 5.609375 53.65625 14.8125 63.9375 
Q 24.03125 74.21875 39.40625 74.21875 
z
" id="DejaVuSans-79"/>
      <path d="M 9.421875 54.6875 
L 18.40625 54.6875 
L 18.40625 -0.984375 
Q 18.40625 -11.421875 14.421875 -16.109375 
Q 10.453125 -20.796875 1.609375 -20.796875 
L -1.8125 -20.796875 
L -1.8125 -13.1875 
L 0.59375 -13.1875 
Q 5.71875 -13.1875 7.5625 -10.8125 
Q 9.421875 -8.453125 9.421875 -0.984375 
z
M 9.421875 75.984375 
L 18.40625 75.984375 
L 18.40625 64.59375 
L 9.421875 64.59375 
z
" id="DejaVuSans-106"/>
      <path d="M 2.984375 54.6875 
L 12.5 54.6875 
L 29.59375 8.796875 
L 46.6875 54.6875 
L 56.203125 54.6875 
L 35.6875 0 
L 23.484375 0 
z
" id="DejaVuSans-118"/>
      <path d="M 34.28125 27.484375 
Q 23.390625 27.484375 19.1875 25 
Q 14.984375 22.515625 14.984375 16.5 
Q 14.984375 11.71875 18.140625 8.90625 
Q 21.296875 6.109375 26.703125 6.109375 
Q 34.1875 6.109375 38.703125 11.40625 
Q 43.21875 16.703125 43.21875 25.484375 
L 43.21875 27.484375 
z
M 52.203125 31.203125 
L 52.203125 0 
L 43.21875 0 
L 43.21875 8.296875 
Q 40.140625 3.328125 35.546875 0.953125 
Q 30.953125 -1.421875 24.3125 -1.421875 
Q 15.921875 -1.421875 10.953125 3.296875 
Q 6 8.015625 6 15.921875 
Q 6 25.140625 12.171875 29.828125 
Q 18.359375 34.515625 30.609375 34.515625 
L 43.21875 34.515625 
L 43.21875 35.40625 
Q 43.21875 41.609375 39.140625 45 
Q 35.0625 48.390625 27.6875 48.390625 
Q 23 48.390625 18.546875 47.265625 
Q 14.109375 46.140625 10.015625 43.890625 
L 10.015625 52.203125 
Q 14.9375 54.109375 19.578125 55.046875 
Q 24.21875 56 28.609375 56 
Q 40.484375 56 46.34375 49.84375 
Q 52.203125 43.703125 52.203125 31.203125 
z
" id="DejaVuSans-97"/>
      <path d="M 9.421875 75.984375 
L 18.40625 75.984375 
L 18.40625 0 
L 9.421875 0 
z
" id="DejaVuSans-108"/>
     </defs>
     <use xlink:href="#DejaVuSans-79"/>
     <use x="78.710938" xlink:href="#DejaVuSans-98"/>
     <use x="142.1875" xlink:href="#DejaVuSans-106"/>
     <use x="169.970703" xlink:href="#DejaVuSans-46"/>
     <use x="201.757812" xlink:href="#DejaVuSans-32"/>
     <use x="233.544922" xlink:href="#DejaVuSans-118"/>
     <use x="292.724609" xlink:href="#DejaVuSans-97"/>
     <use x="354.003906" xlink:href="#DejaVuSans-108"/>
     <use x="381.787109" xlink:href="#DejaVuSans-117"/>
     <use x="445.166016" xlink:href="#DejaVuSans-101"/>
    </g>
   </g>
  </g>
  <g id="axes_4">
   <g id="patch_17">
    <path d="M 550.523077 230.4 
L 669.6 230.4 
L 669.6 34.56 
L 550.523077 34.56 
z
" style="fill:none;"/>
   </g>
   <g id="matplotlib.axis_7">
    <g id="xtick_10">
     <g id="line2d_36">
      <g>
       <use style="stroke:#000000;stroke-width:0.8;" x="588.221273" xlink:href="#mc009b4b9b8" y="230.4"/>
      </g>
     </g>
     <g id="text_36">
      <!-- 1000 -->
      <g transform="translate(575.496273 244.998437)scale(0.1 -0.1)">
       <use xlink:href="#DejaVuSans-49"/>
       <use x="63.623047" xlink:href="#DejaVuSans-48"/>
       <use x="127.246094" xlink:href="#DejaVuSans-48"/>
       <use x="190.869141" xlink:href="#DejaVuSans-48"/>
      </g>
     </g>
    </g>
    <g id="xtick_11">
     <g id="line2d_37">
      <g>
       <use style="stroke:#000000;stroke-width:0.8;" x="626.204343" xlink:href="#mc009b4b9b8" y="230.4"/>
      </g>
     </g>
     <g id="text_37">
      <!-- 2000 -->
      <g transform="translate(613.479343 244.998437)scale(0.1 -0.1)">
       <use xlink:href="#DejaVuSans-50"/>
       <use x="63.623047" xlink:href="#DejaVuSans-48"/>
       <use x="127.246094" xlink:href="#DejaVuSans-48"/>
       <use x="190.869141" xlink:href="#DejaVuSans-48"/>
      </g>
     </g>
    </g>
    <g id="xtick_12">
     <g id="line2d_38">
      <g>
       <use style="stroke:#000000;stroke-width:0.8;" x="664.187413" xlink:href="#mc009b4b9b8" y="230.4"/>
      </g>
     </g>
     <g id="text_38">
      <!-- 3000 -->
      <g transform="translate(651.462413 244.998437)scale(0.1 -0.1)">
       <use xlink:href="#DejaVuSans-51"/>
       <use x="63.623047" xlink:href="#DejaVuSans-48"/>
       <use x="127.246094" xlink:href="#DejaVuSans-48"/>
       <use x="190.869141" xlink:href="#DejaVuSans-48"/>
      </g>
     </g>
    </g>
    <g id="text_39">
     <!-- Number of edges -->
     <g transform="translate(566.871695 258.676562)scale(0.1 -0.1)">
      <use xlink:href="#DejaVuSans-78"/>
      <use x="74.804688" xlink:href="#DejaVuSans-117"/>
      <use x="138.183594" xlink:href="#DejaVuSans-109"/>
      <use x="235.595703" xlink:href="#DejaVuSans-98"/>
      <use x="299.072266" xlink:href="#DejaVuSans-101"/>
      <use x="360.595703" xlink:href="#DejaVuSans-114"/>
      <use x="401.708984" xlink:href="#DejaVuSans-32"/>
      <use x="433.496094" xlink:href="#DejaVuSans-111"/>
      <use x="494.677734" xlink:href="#DejaVuSans-102"/>
      <use x="529.882812" xlink:href="#DejaVuSans-32"/>
      <use x="561.669922" xlink:href="#DejaVuSans-101"/>
      <use x="623.193359" xlink:href="#DejaVuSans-100"/>
      <use x="686.669922" xlink:href="#DejaVuSans-103"/>
      <use x="750.146484" xlink:href="#DejaVuSans-101"/>
      <use x="811.669922" xlink:href="#DejaVuSans-115"/>
     </g>
    </g>
   </g>
   <g id="matplotlib.axis_8">
    <g id="ytick_21">
     <g id="line2d_39">
      <g>
       <use style="stroke:#000000;stroke-width:0.8;" x="550.523077" xlink:href="#m96fd5dd437" y="224.921958"/>
      </g>
     </g>
     <g id="text_40">
      <!-- 0 -->
      <g transform="translate(537.160577 228.721177)scale(0.1 -0.1)">
       <use xlink:href="#DejaVuSans-48"/>
      </g>
     </g>
    </g>
    <g id="ytick_22">
     <g id="line2d_40">
      <g>
       <use style="stroke:#000000;stroke-width:0.8;" x="550.523077" xlink:href="#m96fd5dd437" y="190.684196"/>
      </g>
     </g>
     <g id="text_41">
      <!-- 10 -->
      <g transform="translate(530.798077 194.483415)scale(0.1 -0.1)">
       <use xlink:href="#DejaVuSans-49"/>
       <use x="63.623047" xlink:href="#DejaVuSans-48"/>
      </g>
     </g>
    </g>
    <g id="ytick_23">
     <g id="line2d_41">
      <g>
       <use style="stroke:#000000;stroke-width:0.8;" x="550.523077" xlink:href="#m96fd5dd437" y="156.446434"/>
      </g>
     </g>
     <g id="text_42">
      <!-- 20 -->
      <g transform="translate(530.798077 160.245652)scale(0.1 -0.1)">
       <use xlink:href="#DejaVuSans-50"/>
       <use x="63.623047" xlink:href="#DejaVuSans-48"/>
      </g>
     </g>
    </g>
    <g id="ytick_24">
     <g id="line2d_42">
      <g>
       <use style="stroke:#000000;stroke-width:0.8;" x="550.523077" xlink:href="#m96fd5dd437" y="122.208671"/>
      </g>
     </g>
     <g id="text_43">
      <!-- 30 -->
      <g transform="translate(530.798077 126.00789)scale(0.1 -0.1)">
       <use xlink:href="#DejaVuSans-51"/>
       <use x="63.623047" xlink:href="#DejaVuSans-48"/>
      </g>
     </g>
    </g>
    <g id="ytick_25">
     <g id="line2d_43">
      <g>
       <use style="stroke:#000000;stroke-width:0.8;" x="550.523077" xlink:href="#m96fd5dd437" y="87.970909"/>
      </g>
     </g>
     <g id="text_44">
      <!-- 40 -->
      <g transform="translate(530.798077 91.770128)scale(0.1 -0.1)">
       <use xlink:href="#DejaVuSans-52"/>
       <use x="63.623047" xlink:href="#DejaVuSans-48"/>
      </g>
     </g>
    </g>
    <g id="ytick_26">
     <g id="line2d_44">
      <g>
       <use style="stroke:#000000;stroke-width:0.8;" x="550.523077" xlink:href="#m96fd5dd437" y="53.733147"/>
      </g>
     </g>
     <g id="text_45">
      <!-- 50 -->
      <g transform="translate(530.798077 57.532366)scale(0.1 -0.1)">
       <use xlink:href="#DejaVuSans-53"/>
       <use x="63.623047" xlink:href="#DejaVuSans-48"/>
      </g>
     </g>
    </g>
   </g>
   <g id="line2d_45">
    <path clip-path="url(#pfe669f3b60)" d="M 555.935664 221.498182 
L 561.633125 197.531748 
L 567.330585 218.074406 
L 573.028046 214.650629 
L 578.725506 214.650629 
L 584.422967 200.955524 
L 590.120427 211.226853 
L 595.817887 207.803077 
L 601.515348 211.226853 
L 607.212808 200.955524 
L 612.910269 204.379301 
L 618.607729 218.074406 
L 624.30519 81.123357 
L 630.00265 122.208671 
L 635.70011 211.226853 
L 641.397571 43.461818 
L 647.095031 176.989091 
L 652.792492 81.123357 
L 658.489952 87.970909 
L 664.187413 125.632448 
" style="fill:none;stroke:#1f77b4;stroke-linecap:square;stroke-width:1.5;"/>
    <g clip-path="url(#pfe669f3b60)">
     <use style="fill:#1f77b4;stroke:#1f77b4;" x="555.935664" xlink:href="#m08941b10a9" y="221.498182"/>
     <use style="fill:#1f77b4;stroke:#1f77b4;" x="561.633125" xlink:href="#m08941b10a9" y="197.531748"/>
     <use style="fill:#1f77b4;stroke:#1f77b4;" x="567.330585" xlink:href="#m08941b10a9" y="218.074406"/>
     <use style="fill:#1f77b4;stroke:#1f77b4;" x="573.028046" xlink:href="#m08941b10a9" y="214.650629"/>
     <use style="fill:#1f77b4;stroke:#1f77b4;" x="578.725506" xlink:href="#m08941b10a9" y="214.650629"/>
     <use style="fill:#1f77b4;stroke:#1f77b4;" x="584.422967" xlink:href="#m08941b10a9" y="200.955524"/>
     <use style="fill:#1f77b4;stroke:#1f77b4;" x="590.120427" xlink:href="#m08941b10a9" y="211.226853"/>
     <use style="fill:#1f77b4;stroke:#1f77b4;" x="595.817887" xlink:href="#m08941b10a9" y="207.803077"/>
     <use style="fill:#1f77b4;stroke:#1f77b4;" x="601.515348" xlink:href="#m08941b10a9" y="211.226853"/>
     <use style="fill:#1f77b4;stroke:#1f77b4;" x="607.212808" xlink:href="#m08941b10a9" y="200.955524"/>
     <use style="fill:#1f77b4;stroke:#1f77b4;" x="612.910269" xlink:href="#m08941b10a9" y="204.379301"/>
     <use style="fill:#1f77b4;stroke:#1f77b4;" x="618.607729" xlink:href="#m08941b10a9" y="218.074406"/>
     <use style="fill:#1f77b4;stroke:#1f77b4;" x="624.30519" xlink:href="#m08941b10a9" y="81.123357"/>
     <use style="fill:#1f77b4;stroke:#1f77b4;" x="630.00265" xlink:href="#m08941b10a9" y="122.208671"/>
     <use style="fill:#1f77b4;stroke:#1f77b4;" x="635.70011" xlink:href="#m08941b10a9" y="211.226853"/>
     <use style="fill:#1f77b4;stroke:#1f77b4;" x="641.397571" xlink:href="#m08941b10a9" y="43.461818"/>
     <use style="fill:#1f77b4;stroke:#1f77b4;" x="647.095031" xlink:href="#m08941b10a9" y="176.989091"/>
     <use style="fill:#1f77b4;stroke:#1f77b4;" x="652.792492" xlink:href="#m08941b10a9" y="81.123357"/>
     <use style="fill:#1f77b4;stroke:#1f77b4;" x="658.489952" xlink:href="#m08941b10a9" y="87.970909"/>
     <use style="fill:#1f77b4;stroke:#1f77b4;" x="664.187413" xlink:href="#m08941b10a9" y="125.632448"/>
    </g>
   </g>
   <g id="line2d_46">
    <path clip-path="url(#pfe669f3b60)" d="M 555.935664 221.498182 
L 561.633125 197.531748 
L 567.330585 218.074406 
L 573.028046 214.650629 
L 578.725506 214.650629 
L 584.422967 200.955524 
L 590.120427 211.226853 
L 595.817887 207.803077 
L 601.515348 211.226853 
L 607.212808 200.955524 
L 612.910269 204.379301 
L 618.607729 218.074406 
L 624.30519 81.123357 
L 630.00265 122.208671 
L 635.70011 211.226853 
L 641.397571 43.461818 
L 647.095031 176.989091 
L 652.792492 81.123357 
L 658.489952 87.970909 
L 664.187413 125.632448 
" style="fill:none;stroke:#ff7f0e;stroke-dasharray:5.55,2.4;stroke-dashoffset:0;stroke-width:1.5;"/>
    <g clip-path="url(#pfe669f3b60)">
     <use style="fill:#ff7f0e;stroke:#ff7f0e;stroke-linejoin:miter;" x="555.935664" xlink:href="#mbcdd148858" y="221.498182"/>
     <use style="fill:#ff7f0e;stroke:#ff7f0e;stroke-linejoin:miter;" x="561.633125" xlink:href="#mbcdd148858" y="197.531748"/>
     <use style="fill:#ff7f0e;stroke:#ff7f0e;stroke-linejoin:miter;" x="567.330585" xlink:href="#mbcdd148858" y="218.074406"/>
     <use style="fill:#ff7f0e;stroke:#ff7f0e;stroke-linejoin:miter;" x="573.028046" xlink:href="#mbcdd148858" y="214.650629"/>
     <use style="fill:#ff7f0e;stroke:#ff7f0e;stroke-linejoin:miter;" x="578.725506" xlink:href="#mbcdd148858" y="214.650629"/>
     <use style="fill:#ff7f0e;stroke:#ff7f0e;stroke-linejoin:miter;" x="584.422967" xlink:href="#mbcdd148858" y="200.955524"/>
     <use style="fill:#ff7f0e;stroke:#ff7f0e;stroke-linejoin:miter;" x="590.120427" xlink:href="#mbcdd148858" y="211.226853"/>
     <use style="fill:#ff7f0e;stroke:#ff7f0e;stroke-linejoin:miter;" x="595.817887" xlink:href="#mbcdd148858" y="207.803077"/>
     <use style="fill:#ff7f0e;stroke:#ff7f0e;stroke-linejoin:miter;" x="601.515348" xlink:href="#mbcdd148858" y="211.226853"/>
     <use style="fill:#ff7f0e;stroke:#ff7f0e;stroke-linejoin:miter;" x="607.212808" xlink:href="#mbcdd148858" y="200.955524"/>
     <use style="fill:#ff7f0e;stroke:#ff7f0e;stroke-linejoin:miter;" x="612.910269" xlink:href="#mbcdd148858" y="204.379301"/>
     <use style="fill:#ff7f0e;stroke:#ff7f0e;stroke-linejoin:miter;" x="618.607729" xlink:href="#mbcdd148858" y="218.074406"/>
     <use style="fill:#ff7f0e;stroke:#ff7f0e;stroke-linejoin:miter;" x="624.30519" xlink:href="#mbcdd148858" y="81.123357"/>
     <use style="fill:#ff7f0e;stroke:#ff7f0e;stroke-linejoin:miter;" x="630.00265" xlink:href="#mbcdd148858" y="122.208671"/>
     <use style="fill:#ff7f0e;stroke:#ff7f0e;stroke-linejoin:miter;" x="635.70011" xlink:href="#mbcdd148858" y="211.226853"/>
     <use style="fill:#ff7f0e;stroke:#ff7f0e;stroke-linejoin:miter;" x="641.397571" xlink:href="#mbcdd148858" y="43.461818"/>
     <use style="fill:#ff7f0e;stroke:#ff7f0e;stroke-linejoin:miter;" x="647.095031" xlink:href="#mbcdd148858" y="176.989091"/>
     <use style="fill:#ff7f0e;stroke:#ff7f0e;stroke-linejoin:miter;" x="652.792492" xlink:href="#mbcdd148858" y="81.123357"/>
     <use style="fill:#ff7f0e;stroke:#ff7f0e;stroke-linejoin:miter;" x="658.489952" xlink:href="#mbcdd148858" y="87.970909"/>
     <use style="fill:#ff7f0e;stroke:#ff7f0e;stroke-linejoin:miter;" x="664.187413" xlink:href="#mbcdd148858" y="125.632448"/>
    </g>
   </g>
   <g id="patch_18">
    <path d="M 550.523077 230.4 
L 550.523077 34.56 
" style="fill:none;stroke:#000000;stroke-linecap:square;stroke-linejoin:miter;stroke-width:0.8;"/>
   </g>
   <g id="patch_19">
    <path d="M 669.6 230.4 
L 669.6 34.56 
" style="fill:none;stroke:#000000;stroke-linecap:square;stroke-linejoin:miter;stroke-width:0.8;"/>
   </g>
   <g id="patch_20">
    <path d="M 550.523077 230.4 
L 669.6 230.4 
" style="fill:none;stroke:#000000;stroke-linecap:square;stroke-linejoin:miter;stroke-width:0.8;"/>
   </g>
   <g id="patch_21">
    <path d="M 550.523077 34.56 
L 669.6 34.56 
" style="fill:none;stroke:#000000;stroke-linecap:square;stroke-linejoin:miter;stroke-width:0.8;"/>
   </g>
   <g id="text_46">
    <!-- Number of solutions -->
    <g transform="translate(549.476538 28.56)scale(0.12 -0.12)">
     <use xlink:href="#DejaVuSans-78"/>
     <use x="74.804688" xlink:href="#DejaVuSans-117"/>
     <use x="138.183594" xlink:href="#DejaVuSans-109"/>
     <use x="235.595703" xlink:href="#DejaVuSans-98"/>
     <use x="299.072266" xlink:href="#DejaVuSans-101"/>
     <use x="360.595703" xlink:href="#DejaVuSans-114"/>
     <use x="401.708984" xlink:href="#DejaVuSans-32"/>
     <use x="433.496094" xlink:href="#DejaVuSans-111"/>
     <use x="494.677734" xlink:href="#DejaVuSans-102"/>
     <use x="529.882812" xlink:href="#DejaVuSans-32"/>
     <use x="561.669922" xlink:href="#DejaVuSans-115"/>
     <use x="613.769531" xlink:href="#DejaVuSans-111"/>
     <use x="674.951172" xlink:href="#DejaVuSans-108"/>
     <use x="702.734375" xlink:href="#DejaVuSans-117"/>
     <use x="766.113281" xlink:href="#DejaVuSans-116"/>
     <use x="805.322266" xlink:href="#DejaVuSans-105"/>
     <use x="833.105469" xlink:href="#DejaVuSans-111"/>
     <use x="894.287109" xlink:href="#DejaVuSans-110"/>
     <use x="957.666016" xlink:href="#DejaVuSans-115"/>
    </g>
   </g>
  </g>
  <g id="text_47">
   <!-- Erdos networks -->
   <g transform="translate(313.843125 14.878125)scale(0.12 -0.12)">
    <defs>
     <path d="M 4.203125 54.6875 
L 13.1875 54.6875 
L 24.421875 12.015625 
L 35.59375 54.6875 
L 46.1875 54.6875 
L 57.421875 12.015625 
L 68.609375 54.6875 
L 77.59375 54.6875 
L 63.28125 0 
L 52.6875 0 
L 40.921875 44.828125 
L 29.109375 0 
L 18.5 0 
z
" id="DejaVuSans-119"/>
     <path d="M 9.078125 75.984375 
L 18.109375 75.984375 
L 18.109375 31.109375 
L 44.921875 54.6875 
L 56.390625 54.6875 
L 27.390625 29.109375 
L 57.625 0 
L 45.90625 0 
L 18.109375 26.703125 
L 18.109375 0 
L 9.078125 0 
z
" id="DejaVuSans-107"/>
    </defs>
    <use xlink:href="#DejaVuSans-69"/>
    <use x="63.183594" xlink:href="#DejaVuSans-114"/>
    <use x="102.546875" xlink:href="#DejaVuSans-100"/>
    <use x="166.023438" xlink:href="#DejaVuSans-111"/>
    <use x="227.205078" xlink:href="#DejaVuSans-115"/>
    <use x="279.304688" xlink:href="#DejaVuSans-32"/>
    <use x="311.091797" xlink:href="#DejaVuSans-110"/>
    <use x="374.470703" xlink:href="#DejaVuSans-101"/>
    <use x="435.994141" xlink:href="#DejaVuSans-116"/>
    <use x="475.203125" xlink:href="#DejaVuSans-119"/>
    <use x="556.990234" xlink:href="#DejaVuSans-111"/>
    <use x="618.171875" xlink:href="#DejaVuSans-114"/>
    <use x="659.285156" xlink:href="#DejaVuSans-107"/>
    <use x="717.195312" xlink:href="#DejaVuSans-115"/>
   </g>
  </g>
  <g id="legend_1">
   <g id="patch_22">
    <path d="M 290.830469 283 
L 429.169531 283 
Q 431.169531 283 431.169531 281 
L 431.169531 267.321875 
Q 431.169531 265.321875 429.169531 265.321875 
L 290.830469 265.321875 
Q 288.830469 265.321875 288.830469 267.321875 
L 288.830469 281 
Q 288.830469 283 290.830469 283 
z
" style="fill:#ffffff;opacity:0.8;stroke:#cccccc;stroke-linejoin:miter;"/>
   </g>
   <g id="line2d_47">
    <path d="M 292.830469 273.420313 
L 312.830469 273.420313 
" style="fill:none;stroke:#1f77b4;stroke-linecap:square;stroke-width:1.5;"/>
   </g>
   <g id="line2d_48">
    <g>
     <use style="fill:#1f77b4;stroke:#1f77b4;" x="302.830469" xlink:href="#m08941b10a9" y="273.420313"/>
    </g>
   </g>
   <g id="text_48">
    <!-- gurobi -->
    <g transform="translate(320.830469 276.920313)scale(0.1 -0.1)">
     <use xlink:href="#DejaVuSans-103"/>
     <use x="63.476562" xlink:href="#DejaVuSans-117"/>
     <use x="126.855469" xlink:href="#DejaVuSans-114"/>
     <use x="165.71875" xlink:href="#DejaVuSans-111"/>
     <use x="226.900391" xlink:href="#DejaVuSans-98"/>
     <use x="290.376953" xlink:href="#DejaVuSans-105"/>
    </g>
   </g>
   <g id="line2d_49">
    <path d="M 372.647656 273.420313 
L 392.647656 273.420313 
" style="fill:none;stroke:#ff7f0e;stroke-dasharray:5.55,2.4;stroke-dashoffset:0;stroke-width:1.5;"/>
   </g>
   <g id="line2d_50">
    <g>
     <use style="fill:#ff7f0e;stroke:#ff7f0e;stroke-linejoin:miter;" x="382.647656" xlink:href="#mbcdd148858" y="273.420313"/>
    </g>
   </g>
   <g id="text_49">
    <!-- cplex -->
    <g transform="translate(400.647656 276.920313)scale(0.1 -0.1)">
     <defs>
      <path d="M 18.109375 8.203125 
L 18.109375 -20.796875 
L 9.078125 -20.796875 
L 9.078125 54.6875 
L 18.109375 54.6875 
L 18.109375 46.390625 
Q 20.953125 51.265625 25.265625 53.625 
Q 29.59375 56 35.59375 56 
Q 45.5625 56 51.78125 48.09375 
Q 58.015625 40.1875 58.015625 27.296875 
Q 58.015625 14.40625 51.78125 6.484375 
Q 45.5625 -1.421875 35.59375 -1.421875 
Q 29.59375 -1.421875 25.265625 0.953125 
Q 20.953125 3.328125 18.109375 8.203125 
z
M 48.6875 27.296875 
Q 48.6875 37.203125 44.609375 42.84375 
Q 40.53125 48.484375 33.40625 48.484375 
Q 26.265625 48.484375 22.1875 42.84375 
Q 18.109375 37.203125 18.109375 27.296875 
Q 18.109375 17.390625 22.1875 11.75 
Q 26.265625 6.109375 33.40625 6.109375 
Q 40.53125 6.109375 44.609375 11.75 
Q 48.6875 17.390625 48.6875 27.296875 
z
" id="DejaVuSans-112"/>
     </defs>
     <use xlink:href="#DejaVuSans-99"/>
     <use x="54.980469" xlink:href="#DejaVuSans-112"/>
     <use x="118.457031" xlink:href="#DejaVuSans-108"/>
     <use x="146.240234" xlink:href="#DejaVuSans-101"/>
     <use x="206.013672" xlink:href="#DejaVuSans-120"/>
    </g>
   </g>
  </g>
 </g>
 <defs>
  <clipPath id="p25d648ea21">
   <rect height="195.84" width="119.076923" x="50.4" y="34.56"/>
  </clipPath>
  <clipPath id="p7571a0143f">
   <rect height="195.84" width="119.076923" x="217.107692" y="34.56"/>
  </clipPath>
  <clipPath id="pae83c3b419">
   <rect height="195.84" width="119.076923" x="383.815385" y="34.56"/>
  </clipPath>
  <clipPath id="pfe669f3b60">
   <rect height="195.84" width="119.076923" x="550.523077" y="34.56"/>
  </clipPath>
 </defs>
</svg>
