<?xml version="1.0" encoding="UTF-8" standalone="no"?>
<!DOCTYPE svg PUBLIC "-//W3C//DTD SVG 1.1//EN"
 "http://www.w3.org/Graphics/SVG/1.1/DTD/svg11.dtd">
<!-- Generated by graphviz version 2.47.0 (20210316.1410)
 -->
<!-- Pages: 1 -->
<svg width="534pt" height="1091pt"
 viewBox="0.00 0.00 534.25 1090.86" xmlns="http://www.w3.org/2000/svg" xmlns:xlink="http://www.w3.org/1999/xlink">
<g id="graph0" class="graph" transform="scale(1 1) rotate(0) translate(4 1086.86)">
<polygon fill="white" stroke="transparent" points="-4,4 -4,-1086.86 530.25,-1086.86 530.25,4 -4,4"/>
<!-- I1 -->
<g id="node1" class="node">
<title>I1</title>
<polygon fill="lavender" stroke="black" points="197.25,-552.42 224.25,-539.98 251.25,-552.42 251.22,-572.54 197.27,-572.54 197.25,-552.42"/>
<text text-anchor="middle" x="224.25" y="-554.28" font-family="Times-Roman" font-size="14.00">I1</text>
</g>
<!-- N75 -->
<g id="node2" class="node">
<title>N75</title>
<ellipse fill="lavender" stroke="black" cx="213.25" cy="-458.73" rx="29.5" ry="18"/>
<text text-anchor="middle" x="213.25" y="-455.03" font-family="Times-Roman" font-size="14.00">N75</text>
</g>
<!-- I1&#45;&gt;N75 -->
<g id="edge1" class="edge">
<title>I1&#45;&gt;N75</title>
<path fill="none" stroke="black" d="M222.38,-540.48C220.73,-525.85 218.28,-504.2 216.33,-487"/>
<polygon fill="black" stroke="black" points="215.2,-476.97 220.79,-486.4 215.76,-481.94 216.32,-486.9 216.32,-486.9 216.32,-486.9 215.76,-481.94 211.85,-487.41 215.2,-476.97 215.2,-476.97"/>
</g>
<!-- M5 -->
<g id="node13" class="node">
<title>M5</title>
<ellipse fill="lavender" stroke="black" cx="295.25" cy="-359.49" rx="24.87" ry="24.87"/>
<ellipse fill="none" stroke="black" cx="295.25" cy="-359.49" rx="28.9" ry="28.9"/>
<text text-anchor="middle" x="295.25" y="-355.79" font-family="Times-Roman" font-size="14.00">M5</text>
</g>
<!-- N75&#45;&gt;M5 -->
<g id="edge19" class="edge">
<title>N75&#45;&gt;M5</title>
<path fill="none" stroke="black" d="M226.06,-442.54C237.93,-428.46 255.92,-407.12 270.58,-389.74"/>
<polygon fill="black" stroke="black" points="277.05,-382.07 274.04,-392.62 273.83,-385.89 270.6,-389.72 270.6,-389.72 270.6,-389.72 273.83,-385.89 267.16,-386.81 277.05,-382.07 277.05,-382.07"/>
</g>
<!-- I2 -->
<g id="node3" class="node">
<title>I2</title>
<polygon fill="lavender" stroke="black" points="184.25,-1059.3 211.25,-1046.86 238.25,-1059.3 238.22,-1079.43 184.27,-1079.43 184.25,-1059.3"/>
<text text-anchor="middle" x="211.25" y="-1061.16" font-family="Times-Roman" font-size="14.00">I2</text>
</g>
<!-- N31 -->
<g id="node4" class="node">
<title>N31</title>
<ellipse fill="lavender" stroke="black" cx="126.25" cy="-838.17" rx="29.5" ry="18"/>
<text text-anchor="middle" x="126.25" y="-834.47" font-family="Times-Roman" font-size="14.00">N31</text>
</g>
<!-- I2&#45;&gt;N31 -->
<g id="edge2" class="edge">
<title>I2&#45;&gt;N31</title>
<path fill="none" stroke="black" d="M200.51,-1051.6C192.03,-1041.34 180.45,-1025.99 173.25,-1010.86 150.18,-962.44 136.79,-900.77 130.55,-866.06"/>
<polygon fill="black" stroke="black" points="128.85,-856.2 134.99,-865.28 129.7,-861.12 130.55,-866.05 130.55,-866.05 130.55,-866.05 129.7,-861.12 126.12,-866.82 128.85,-856.2 128.85,-856.2"/>
</g>
<!-- N47 -->
<g id="node5" class="node">
<title>N47</title>
<ellipse fill="lavender" stroke="black" cx="211.25" cy="-992.86" rx="29.5" ry="18"/>
<text text-anchor="middle" x="211.25" y="-989.16" font-family="Times-Roman" font-size="14.00">N47</text>
</g>
<!-- I2&#45;&gt;N47 -->
<g id="edge3" class="edge">
<title>I2&#45;&gt;N47</title>
<path fill="none" stroke="black" d="M211.25,-1046.56C211.25,-1038.85 211.25,-1029.58 211.25,-1020.98"/>
<polygon fill="black" stroke="black" points="211.25,-1010.97 215.75,-1020.97 211.25,-1015.97 211.25,-1020.97 211.25,-1020.97 211.25,-1020.97 211.25,-1015.97 206.75,-1020.97 211.25,-1010.97 211.25,-1010.97"/>
</g>
<!-- N29 -->
<g id="node24" class="node">
<title>N29</title>
<ellipse fill="lavender" stroke="black" cx="377.25" cy="-458.73" rx="29.5" ry="18"/>
<text text-anchor="middle" x="377.25" y="-455.03" font-family="Times-Roman" font-size="14.00">N29</text>
</g>
<!-- I2&#45;&gt;N29 -->
<g id="edge28" class="edge">
<title>I2&#45;&gt;N29</title>
<path fill="none" stroke="black" d="M227.77,-1054.2C269.76,-1029.07 377.25,-960.93 377.25,-921.86 377.25,-921.86 377.25,-921.86 377.25,-650.37 377.25,-592.34 377.25,-524.36 377.25,-487.29"/>
<polygon fill="black" stroke="black" points="377.25,-476.82 381.75,-486.82 377.25,-481.82 377.25,-486.82 377.25,-486.82 377.25,-486.82 377.25,-481.82 372.75,-486.82 377.25,-476.82 377.25,-476.82"/>
</g>
<!-- N6 -->
<g id="node18" class="node">
<title>N6</title>
<ellipse fill="lavender" stroke="black" cx="29.25" cy="-744.77" rx="27" ry="18"/>
<text text-anchor="middle" x="29.25" y="-741.07" font-family="Times-Roman" font-size="14.00">N6</text>
</g>
<!-- N31&#45;&gt;N6 -->
<g id="edge17" class="edge">
<title>N31&#45;&gt;N6</title>
<path fill="none" stroke="black" d="M110.66,-822.48C94.64,-807.38 69.53,-783.73 51.44,-766.68"/>
<polygon fill="black" stroke="black" points="44.16,-759.82 54.52,-763.4 47.8,-763.25 51.43,-766.68 51.43,-766.68 51.43,-766.68 47.8,-763.25 48.35,-769.95 44.16,-759.82 44.16,-759.82"/>
</g>
<!-- N3 -->
<g id="node16" class="node">
<title>N3</title>
<ellipse fill="lavender" stroke="black" cx="211.25" cy="-920.86" rx="27" ry="18"/>
<text text-anchor="middle" x="211.25" y="-917.16" font-family="Times-Roman" font-size="14.00">N3</text>
</g>
<!-- N47&#45;&gt;N3 -->
<g id="edge18" class="edge">
<title>N47&#45;&gt;N3</title>
<path fill="none" stroke="black" d="M211.25,-974.56C211.25,-966.85 211.25,-957.58 211.25,-948.98"/>
<polygon fill="black" stroke="black" points="211.25,-938.97 215.75,-948.97 211.25,-943.97 211.25,-948.97 211.25,-948.97 211.25,-948.97 211.25,-943.97 206.75,-948.97 211.25,-938.97 211.25,-938.97"/>
</g>
<!-- I5 -->
<g id="node6" class="node">
<title>I5</title>
<polygon fill="lavender" stroke="black" points="125.25,-552.42 152.25,-539.98 179.25,-552.42 179.22,-572.54 125.27,-572.54 125.25,-552.42"/>
<text text-anchor="middle" x="152.25" y="-554.28" font-family="Times-Roman" font-size="14.00">I5</text>
</g>
<!-- I5&#45;&gt;N75 -->
<g id="edge4" class="edge">
<title>I5&#45;&gt;N75</title>
<path fill="none" stroke="black" d="M160.73,-543.46C170.29,-528.21 186.05,-503.1 197.81,-484.35"/>
<polygon fill="black" stroke="black" points="203.22,-475.72 201.72,-486.59 200.56,-479.96 197.9,-484.2 197.9,-484.2 197.9,-484.2 200.56,-479.96 194.09,-481.8 203.22,-475.72 203.22,-475.72"/>
</g>
<!-- N77 -->
<g id="node20" class="node">
<title>N77</title>
<ellipse fill="lavender" stroke="black" cx="97.25" cy="-458.73" rx="29.5" ry="18"/>
<text text-anchor="middle" x="97.25" y="-455.03" font-family="Times-Roman" font-size="14.00">N77</text>
</g>
<!-- I5&#45;&gt;N77 -->
<g id="edge20" class="edge">
<title>I5&#45;&gt;N77</title>
<path fill="none" stroke="black" d="M144.6,-543.46C136.07,-528.37 122.07,-503.62 111.5,-484.93"/>
<polygon fill="black" stroke="black" points="106.48,-476.06 115.32,-482.55 108.94,-480.41 111.4,-484.76 111.4,-484.76 111.4,-484.76 108.94,-480.41 107.49,-486.98 106.48,-476.06 106.48,-476.06"/>
</g>
<!-- N12 -->
<g id="node22" class="node">
<title>N12</title>
<ellipse fill="lavender" stroke="black" cx="129.25" cy="-183.4" rx="29.5" ry="18"/>
<text text-anchor="middle" x="129.25" y="-179.7" font-family="Times-Roman" font-size="14.00">N12</text>
</g>
<!-- I5&#45;&gt;N12 -->
<g id="edge24" class="edge">
<title>I5&#45;&gt;N12</title>
<path fill="none" stroke="black" d="M152.06,-539.96C151.42,-492.15 148.62,-352.65 137.25,-237.4 136.41,-228.93 135.15,-219.75 133.88,-211.45"/>
<polygon fill="black" stroke="black" points="132.29,-201.53 138.32,-210.69 133.08,-206.46 133.87,-211.4 133.87,-211.4 133.87,-211.4 133.08,-206.46 129.43,-212.11 132.29,-201.53 132.29,-201.53"/>
</g>
<!-- I10 -->
<g id="node7" class="node">
<title>I10</title>
<polygon fill="lavender" stroke="black" points="287.08,-832.6 318.25,-820.17 349.41,-832.6 349.38,-852.73 287.11,-852.73 287.08,-832.6"/>
<text text-anchor="middle" x="318.25" y="-834.47" font-family="Times-Roman" font-size="14.00">I10</text>
</g>
<!-- M6 -->
<g id="node8" class="node">
<title>M6</title>
<ellipse fill="lavender" stroke="black" cx="319.25" cy="-744.77" rx="24.87" ry="24.87"/>
<ellipse fill="none" stroke="black" cx="319.25" cy="-744.77" rx="28.9" ry="28.9"/>
<text text-anchor="middle" x="319.25" y="-741.07" font-family="Times-Roman" font-size="14.00">M6</text>
</g>
<!-- I10&#45;&gt;M6 -->
<g id="edge5" class="edge">
<title>I10&#45;&gt;M6</title>
<path fill="none" stroke="black" d="M318.44,-819.98C318.55,-809.8 318.69,-796.47 318.83,-783.93"/>
<polygon fill="black" stroke="black" points="318.94,-773.66 323.33,-783.71 318.89,-778.66 318.83,-783.66 318.83,-783.66 318.83,-783.66 318.89,-778.66 314.33,-783.61 318.94,-773.66 318.94,-773.66"/>
</g>
<!-- N19 -->
<g id="node9" class="node">
<title>N19</title>
<ellipse fill="lavender" stroke="black" cx="243.25" cy="-744.77" rx="29.5" ry="18"/>
<text text-anchor="middle" x="243.25" y="-741.07" font-family="Times-Roman" font-size="14.00">N19</text>
</g>
<!-- I10&#45;&gt;N19 -->
<g id="edge6" class="edge">
<title>I10&#45;&gt;N19</title>
<path fill="none" stroke="black" d="M307.5,-824.07C295.81,-809.82 276.87,-786.74 262.57,-769.32"/>
<polygon fill="black" stroke="black" points="255.98,-761.29 265.8,-766.16 259.15,-765.15 262.32,-769.02 262.32,-769.02 262.32,-769.02 259.15,-765.15 258.85,-771.87 255.98,-761.29 255.98,-761.29"/>
</g>
<!-- M7 -->
<g id="node15" class="node">
<title>M7</title>
<ellipse fill="lavender" stroke="black" cx="278.25" cy="-651.37" rx="24.87" ry="24.87"/>
<ellipse fill="none" stroke="black" cx="278.25" cy="-651.37" rx="28.9" ry="28.9"/>
<text text-anchor="middle" x="278.25" y="-647.67" font-family="Times-Roman" font-size="14.00">M7</text>
</g>
<!-- N19&#45;&gt;M7 -->
<g id="edge16" class="edge">
<title>N19&#45;&gt;M7</title>
<path fill="none" stroke="black" d="M249.67,-727.01C253.86,-716.06 259.49,-701.35 264.65,-687.88"/>
<polygon fill="black" stroke="black" points="268.29,-678.37 268.92,-689.31 266.51,-683.04 264.72,-687.71 264.72,-687.71 264.72,-687.71 266.51,-683.04 260.52,-686.1 268.29,-678.37 268.29,-678.37"/>
</g>
<!-- M1 -->
<g id="node10" class="node">
<title>M1</title>
<ellipse fill="lavender" stroke="black" cx="240.25" cy="-838.17" rx="24.87" ry="24.87"/>
<ellipse fill="none" stroke="black" cx="240.25" cy="-838.17" rx="28.9" ry="28.9"/>
<text text-anchor="middle" x="240.25" y="-834.47" font-family="Times-Roman" font-size="14.00">M1</text>
</g>
<!-- M1&#45;&gt;N19 -->
<g id="edge7" class="edge">
<title>M1&#45;&gt;N19</title>
<path fill="none" stroke="black" d="M241.16,-809.25C241.54,-797.79 241.97,-784.57 242.35,-773.16"/>
<polygon fill="black" stroke="black" points="242.68,-762.91 246.85,-773.05 242.52,-767.9 242.36,-772.9 242.36,-772.9 242.36,-772.9 242.52,-767.9 237.86,-772.75 242.68,-762.91 242.68,-762.91"/>
</g>
<!-- M3 -->
<g id="node11" class="node">
<title>M3</title>
<ellipse fill="lavender" stroke="black" cx="298.25" cy="-557.98" rx="24.87" ry="24.87"/>
<ellipse fill="none" stroke="black" cx="298.25" cy="-557.98" rx="28.9" ry="28.9"/>
<text text-anchor="middle" x="298.25" y="-554.28" font-family="Times-Roman" font-size="14.00">M3</text>
</g>
<!-- M10 -->
<g id="node12" class="node">
<title>M10</title>
<ellipse fill="lavender" stroke="black" cx="295.25" cy="-458.73" rx="30.59" ry="30.59"/>
<ellipse fill="none" stroke="black" cx="295.25" cy="-458.73" rx="34.59" ry="34.59"/>
<text text-anchor="middle" x="295.25" y="-455.03" font-family="Times-Roman" font-size="14.00">M10</text>
</g>
<!-- M3&#45;&gt;M10 -->
<g id="edge8" class="edge">
<title>M3&#45;&gt;M10</title>
<path fill="none" stroke="black" d="M297.39,-529.11C297.14,-521.13 296.87,-512.22 296.6,-503.52"/>
<polygon fill="black" stroke="black" points="296.29,-493.47 301.09,-503.33 296.44,-498.47 296.6,-503.47 296.6,-503.47 296.6,-503.47 296.44,-498.47 292.1,-503.61 296.29,-493.47 296.29,-493.47"/>
</g>
<!-- M3&#45;&gt;N29 -->
<g id="edge30" class="edge">
<title>M3&#45;&gt;N29</title>
<path fill="none" stroke="black" d="M316.17,-534.91C328.7,-519.5 345.39,-498.95 358.16,-483.23"/>
<polygon fill="black" stroke="black" points="364.8,-475.06 361.99,-485.66 361.65,-478.94 358.49,-482.82 358.49,-482.82 358.49,-482.82 361.65,-478.94 355,-479.98 364.8,-475.06 364.8,-475.06"/>
</g>
<!-- M9 -->
<g id="node14" class="node">
<title>M9</title>
<ellipse fill="lavender" stroke="black" cx="295.25" cy="-266.09" rx="24.87" ry="24.87"/>
<ellipse fill="none" stroke="black" cx="295.25" cy="-266.09" rx="28.9" ry="28.9"/>
<text text-anchor="middle" x="295.25" y="-262.39" font-family="Times-Roman" font-size="14.00">M9</text>
</g>
<!-- M5&#45;&gt;M9 -->
<g id="edge9" class="edge">
<title>M5&#45;&gt;M9</title>
<path fill="none" stroke="black" d="M295.25,-330.57C295.25,-322.51 295.25,-313.57 295.25,-305.01"/>
<polygon fill="black" stroke="black" points="295.25,-294.84 299.75,-304.84 295.25,-299.84 295.25,-304.84 295.25,-304.84 295.25,-304.84 295.25,-299.84 290.75,-304.84 295.25,-294.84 295.25,-294.84"/>
</g>
<!-- M9&#45;&gt;N12 -->
<g id="edge26" class="edge">
<title>M9&#45;&gt;N12</title>
<path fill="none" stroke="black" d="M269.67,-252.66C240.33,-238.4 192.21,-215 160.63,-199.65"/>
<polygon fill="black" stroke="black" points="151.4,-195.16 162.36,-195.49 155.89,-197.35 160.39,-199.53 160.39,-199.53 160.39,-199.53 155.89,-197.35 158.42,-203.58 151.4,-195.16 151.4,-195.16"/>
</g>
<!-- M7&#45;&gt;M3 -->
<g id="edge10" class="edge">
<title>M7&#45;&gt;M3</title>
<path fill="none" stroke="black" d="M284.25,-622.95C286.1,-614.47 288.18,-604.99 290.15,-595.97"/>
<polygon fill="black" stroke="black" points="292.32,-586.07 294.58,-596.8 291.25,-590.95 290.18,-595.84 290.18,-595.84 290.18,-595.84 291.25,-590.95 285.79,-594.87 292.32,-586.07 292.32,-586.07"/>
</g>
<!-- N3&#45;&gt;N31 -->
<g id="edge14" class="edge">
<title>N3&#45;&gt;N31</title>
<path fill="none" stroke="black" d="M196.44,-905.81C183.32,-893.35 163.95,-874.97 148.89,-860.66"/>
<polygon fill="black" stroke="black" points="141.46,-853.6 151.81,-857.23 145.08,-857.05 148.71,-860.49 148.71,-860.49 148.71,-860.49 145.08,-857.05 145.61,-863.75 141.46,-853.6 141.46,-853.6"/>
</g>
<!-- N3&#45;&gt;M1 -->
<g id="edge11" class="edge">
<title>N3&#45;&gt;M1</title>
<path fill="none" stroke="black" d="M217.26,-903.14C220.19,-894.97 223.85,-884.8 227.37,-875"/>
<polygon fill="black" stroke="black" points="230.82,-865.4 231.67,-876.33 229.13,-870.1 227.44,-874.81 227.44,-874.81 227.44,-874.81 229.13,-870.1 223.2,-873.29 230.82,-865.4 230.82,-865.4"/>
</g>
<!-- N3&#45;&gt;M9 -->
<g id="edge13" class="edge">
<title>N3&#45;&gt;M9</title>
<path fill="none" stroke="black" d="M237.43,-915.79C268.98,-909.76 322.23,-895.88 358.25,-866.86 407.73,-827 434.25,-809.31 434.25,-745.77 434.25,-745.77 434.25,-745.77 434.25,-457.73 434.25,-385.12 367.58,-321.65 326.59,-289.48"/>
<polygon fill="black" stroke="black" points="318.51,-283.29 329.19,-285.8 322.48,-286.33 326.45,-289.38 326.45,-289.38 326.45,-289.38 322.48,-286.33 323.71,-292.95 318.51,-283.29 318.51,-283.29"/>
</g>
<!-- M4 -->
<g id="node17" class="node">
<title>M4</title>
<ellipse fill="lavender" stroke="black" cx="140.25" cy="-651.37" rx="24.87" ry="24.87"/>
<ellipse fill="none" stroke="black" cx="140.25" cy="-651.37" rx="28.9" ry="28.9"/>
<text text-anchor="middle" x="140.25" y="-647.67" font-family="Times-Roman" font-size="14.00">M4</text>
</g>
<!-- N3&#45;&gt;M4 -->
<g id="edge12" class="edge">
<title>N3&#45;&gt;M4</title>
<path fill="none" stroke="black" d="M206.7,-902.72C195.35,-859.98 165.6,-747.87 150.04,-689.27"/>
<polygon fill="black" stroke="black" points="147.4,-679.32 154.31,-687.83 148.68,-684.15 149.96,-688.98 149.96,-688.98 149.96,-688.98 148.68,-684.15 145.61,-690.14 147.4,-679.32 147.4,-679.32"/>
</g>
<!-- M4&#45;&gt;N77 -->
<g id="edge21" class="edge">
<title>M4&#45;&gt;N77</title>
<path fill="none" stroke="black" d="M129.17,-624.74C124.59,-613.28 119.58,-599.49 116.25,-586.68 107.46,-552.9 102.31,-512.94 99.64,-487"/>
<polygon fill="black" stroke="black" points="98.65,-476.8 104.1,-486.32 99.13,-481.78 99.62,-486.75 99.62,-486.75 99.62,-486.75 99.13,-481.78 95.14,-487.19 98.65,-476.8 98.65,-476.8"/>
</g>
<!-- M8 -->
<g id="node19" class="node">
<title>M8</title>
<ellipse fill="lavender" stroke="black" cx="36.25" cy="-28.7" rx="24.87" ry="24.87"/>
<ellipse fill="none" stroke="black" cx="36.25" cy="-28.7" rx="28.9" ry="28.9"/>
<text text-anchor="middle" x="36.25" y="-25" font-family="Times-Roman" font-size="14.00">M8</text>
</g>
<!-- N6&#45;&gt;M8 -->
<g id="edge15" class="edge">
<title>N6&#45;&gt;M8</title>
<path fill="none" stroke="black" d="M25.97,-726.52C20.06,-693.92 8.25,-620.97 8.25,-558.98 8.25,-558.98 8.25,-558.98 8.25,-182.4 8.25,-142.2 17.75,-97.01 25.68,-66.29"/>
<polygon fill="black" stroke="black" points="28.3,-56.46 30.08,-67.28 27.01,-61.29 25.73,-66.12 25.73,-66.12 25.73,-66.12 27.01,-61.29 21.38,-64.97 28.3,-56.46 28.3,-56.46"/>
</g>
<!-- N15 -->
<g id="node21" class="node">
<title>N15</title>
<ellipse fill="lavender" stroke="black" cx="65.25" cy="-111.4" rx="29.5" ry="18"/>
<text text-anchor="middle" x="65.25" y="-107.7" font-family="Times-Roman" font-size="14.00">N15</text>
</g>
<!-- N77&#45;&gt;N15 -->
<g id="edge23" class="edge">
<title>N77&#45;&gt;N15</title>
<path fill="none" stroke="black" d="M92.78,-440.77C85.29,-411.33 70.49,-348.74 65.25,-294.79 59.91,-239.95 61.83,-175.4 63.61,-139.67"/>
<polygon fill="black" stroke="black" points="64.14,-129.55 68.11,-139.77 63.88,-134.54 63.61,-139.53 63.61,-139.53 63.61,-139.53 63.88,-134.54 59.12,-139.3 64.14,-129.55 64.14,-129.55"/>
</g>
<!-- N15&#45;&gt;M8 -->
<g id="edge22" class="edge">
<title>N15&#45;&gt;M8</title>
<path fill="none" stroke="black" d="M59.24,-93.67C56.3,-85.5 52.65,-75.34 49.12,-65.53"/>
<polygon fill="black" stroke="black" points="45.67,-55.93 53.29,-63.82 47.37,-60.63 49.06,-65.34 49.06,-65.34 49.06,-65.34 47.37,-60.63 44.82,-66.86 45.67,-55.93 45.67,-55.93"/>
</g>
<!-- N12&#45;&gt;N15 -->
<g id="edge27" class="edge">
<title>N12&#45;&gt;N15</title>
<path fill="none" stroke="black" d="M115.36,-167.21C106.81,-157.85 95.68,-145.68 86.08,-135.18"/>
<polygon fill="black" stroke="black" points="79.11,-127.55 89.18,-131.9 82.48,-131.25 85.86,-134.94 85.86,-134.94 85.86,-134.94 82.48,-131.25 82.53,-137.97 79.11,-127.55 79.11,-127.55"/>
</g>
<!-- I7 -->
<g id="node23" class="node">
<title>I7</title>
<polygon fill="lavender" stroke="black" points="74.25,-260.53 101.25,-248.09 128.25,-260.53 128.22,-280.66 74.27,-280.66 74.25,-260.53"/>
<text text-anchor="middle" x="101.25" y="-262.39" font-family="Times-Roman" font-size="14.00">I7</text>
</g>
<!-- I7&#45;&gt;N12 -->
<g id="edge25" class="edge">
<title>I7&#45;&gt;N12</title>
<path fill="none" stroke="black" d="M106.38,-250.29C110.23,-239.2 115.6,-223.72 120.17,-210.56"/>
<polygon fill="black" stroke="black" points="123.47,-201.05 124.44,-211.97 121.83,-205.78 120.19,-210.5 120.19,-210.5 120.19,-210.5 121.83,-205.78 115.94,-209.02 123.47,-201.05 123.47,-201.05"/>
</g>
<!-- N29&#45;&gt;M5 -->
<g id="edge31" class="edge">
<title>N29&#45;&gt;M5</title>
<path fill="none" stroke="black" d="M364.43,-442.54C352.56,-428.46 334.57,-407.12 319.91,-389.74"/>
<polygon fill="black" stroke="black" points="313.45,-382.07 323.33,-386.81 316.67,-385.89 319.89,-389.72 319.89,-389.72 319.89,-389.72 316.67,-385.89 316.45,-392.62 313.45,-382.07 313.45,-382.07"/>
</g>
<!-- I9 -->
<g id="node25" class="node">
<title>I9</title>
<polygon fill="lavender" stroke="black" points="2.25,-915.3 29.25,-902.86 56.25,-915.3 56.22,-935.43 2.27,-935.43 2.25,-915.3"/>
<text text-anchor="middle" x="29.25" y="-917.16" font-family="Times-Roman" font-size="14.00">I9</text>
</g>
<!-- N59 -->
<g id="node26" class="node">
<title>N59</title>
<ellipse fill="lavender" stroke="black" cx="29.25" cy="-838.17" rx="29.5" ry="18"/>
<text text-anchor="middle" x="29.25" y="-834.47" font-family="Times-Roman" font-size="14.00">N59</text>
</g>
<!-- I9&#45;&gt;N59 -->
<g id="edge29" class="edge">
<title>I9&#45;&gt;N59</title>
<path fill="none" stroke="black" d="M29.25,-902.75C29.25,-892.16 29.25,-878.33 29.25,-866.27"/>
<polygon fill="black" stroke="black" points="29.25,-856.26 33.75,-866.26 29.25,-861.26 29.25,-866.26 29.25,-866.26 29.25,-866.26 29.25,-861.26 24.75,-866.26 29.25,-856.26 29.25,-856.26"/>
</g>
<!-- N59&#45;&gt;N6 -->
<g id="edge32" class="edge">
<title>N59&#45;&gt;N6</title>
<path fill="none" stroke="black" d="M29.25,-819.98C29.25,-806.83 29.25,-788.44 29.25,-773.25"/>
<polygon fill="black" stroke="black" points="29.25,-762.88 33.75,-772.88 29.25,-767.88 29.25,-772.88 29.25,-772.88 29.25,-772.88 29.25,-767.88 24.75,-772.88 29.25,-762.88 29.25,-762.88"/>
</g>
<!-- I3 -->
<g id="node27" class="node">
<title>I3</title>
<polygon fill="lavender" stroke="black" points="256.25,-1059.3 283.25,-1046.86 310.25,-1059.3 310.22,-1079.43 256.27,-1079.43 256.25,-1059.3"/>
<text text-anchor="middle" x="283.25" y="-1061.16" font-family="Times-Roman" font-size="14.00">I3</text>
</g>
<!-- I4 -->
<g id="node28" class="node">
<title>I4</title>
<polygon fill="lavender" stroke="black" points="328.25,-1059.3 355.25,-1046.86 382.25,-1059.3 382.22,-1079.43 328.27,-1079.43 328.25,-1059.3"/>
<text text-anchor="middle" x="355.25" y="-1061.16" font-family="Times-Roman" font-size="14.00">I4</text>
</g>
<!-- I6 -->
<g id="node29" class="node">
<title>I6</title>
<polygon fill="lavender" stroke="black" points="400.25,-1059.3 427.25,-1046.86 454.25,-1059.3 454.22,-1079.43 400.27,-1079.43 400.25,-1059.3"/>
<text text-anchor="middle" x="427.25" y="-1061.16" font-family="Times-Roman" font-size="14.00">I6</text>
</g>
<!-- I8 -->
<g id="node30" class="node">
<title>I8</title>
<polygon fill="lavender" stroke="black" points="472.25,-1059.3 499.25,-1046.86 526.25,-1059.3 526.22,-1079.43 472.27,-1079.43 472.25,-1059.3"/>
<text text-anchor="middle" x="499.25" y="-1061.16" font-family="Times-Roman" font-size="14.00">I8</text>
</g>
</g>
</svg>
