<?xml version="1.0" encoding="UTF-8" standalone="no"?>
<!DOCTYPE svg PUBLIC "-//W3C//DTD SVG 1.1//EN"
 "http://www.w3.org/Graphics/SVG/1.1/DTD/svg11.dtd">
<!-- Generated by graphviz version 2.47.0 (20210316.1410)
 -->
<!-- Pages: 1 -->
<svg width="759pt" height="688pt"
 viewBox="0.00 0.00 759.00 688.07" xmlns="http://www.w3.org/2000/svg" xmlns:xlink="http://www.w3.org/1999/xlink">
<g id="graph0" class="graph" transform="scale(1 1) rotate(0) translate(4 684.07)">
<polygon fill="white" stroke="transparent" points="-4,4 -4,-684.07 755,-684.07 755,4 -4,4"/>
<!-- I1 -->
<g id="node1" class="node">
<title>I1</title>
<polygon fill="lavender" stroke="black" points="72,-656.51 99,-644.07 126,-656.51 125.97,-676.63 72.03,-676.63 72,-656.51"/>
<text text-anchor="middle" x="99" y="-658.37" font-family="Times-Roman" font-size="14.00">I1</text>
</g>
<!-- N75 -->
<g id="node2" class="node">
<title>N75</title>
<ellipse fill="lavender" stroke="black" cx="63" cy="-590.07" rx="29.5" ry="18"/>
<text text-anchor="middle" x="63" y="-586.37" font-family="Times-Roman" font-size="14.00">N75</text>
</g>
<!-- I1&#45;&gt;N75 -->
<g id="edge1" class="edge">
<title>I1&#45;&gt;N75</title>
<path fill="none" stroke="black" d="M91.89,-647.24C87.37,-638.46 81.38,-626.82 76.04,-616.42"/>
<polygon fill="black" stroke="black" points="71.36,-607.33 79.94,-614.16 73.65,-611.78 75.93,-616.22 75.93,-616.22 75.93,-616.22 73.65,-611.78 71.93,-618.28 71.36,-607.33 71.36,-607.33"/>
</g>
<!-- M5 -->
<g id="node13" class="node">
<title>M5</title>
<ellipse fill="lavender" stroke="black" cx="63" cy="-507.37" rx="24.87" ry="24.87"/>
<ellipse fill="none" stroke="black" cx="63" cy="-507.37" rx="28.9" ry="28.9"/>
<text text-anchor="middle" x="63" y="-503.67" font-family="Times-Roman" font-size="14.00">M5</text>
</g>
<!-- N75&#45;&gt;M5 -->
<g id="edge19" class="edge">
<title>N75&#45;&gt;M5</title>
<path fill="none" stroke="black" d="M63,-571.96C63,-564.51 63,-555.46 63,-546.55"/>
<polygon fill="black" stroke="black" points="63,-536.26 67.5,-546.26 63,-541.26 63,-546.26 63,-546.26 63,-546.26 63,-541.26 58.5,-546.26 63,-536.26 63,-536.26"/>
</g>
<!-- I2 -->
<g id="node3" class="node">
<title>I2</title>
<polygon fill="lavender" stroke="black" points="265,-656.51 292,-644.07 319,-656.51 318.97,-676.63 265.03,-676.63 265,-656.51"/>
<text text-anchor="middle" x="292" y="-658.37" font-family="Times-Roman" font-size="14.00">I2</text>
</g>
<!-- N31 -->
<g id="node4" class="node">
<title>N31</title>
<ellipse fill="lavender" stroke="black" cx="370" cy="-413.98" rx="29.5" ry="18"/>
<text text-anchor="middle" x="370" y="-410.28" font-family="Times-Roman" font-size="14.00">N31</text>
</g>
<!-- I2&#45;&gt;N31 -->
<g id="edge2" class="edge">
<title>I2&#45;&gt;N31</title>
<path fill="none" stroke="black" d="M296.76,-646.05C309.63,-605.43 345.25,-493.05 361.6,-441.48"/>
<polygon fill="black" stroke="black" points="364.69,-431.72 365.96,-442.62 363.18,-436.49 361.67,-441.26 361.67,-441.26 361.67,-441.26 363.18,-436.49 357.38,-439.9 364.69,-431.72 364.69,-431.72"/>
</g>
<!-- N47 -->
<g id="node5" class="node">
<title>N47</title>
<ellipse fill="lavender" stroke="black" cx="238" cy="-590.07" rx="29.5" ry="18"/>
<text text-anchor="middle" x="238" y="-586.37" font-family="Times-Roman" font-size="14.00">N47</text>
</g>
<!-- I2&#45;&gt;N47 -->
<g id="edge3" class="edge">
<title>I2&#45;&gt;N47</title>
<path fill="none" stroke="black" d="M282.1,-648.23C274.87,-638.86 264.86,-625.89 256.2,-614.67"/>
<polygon fill="black" stroke="black" points="249.92,-606.52 259.59,-611.69 252.97,-610.48 256.02,-614.44 256.02,-614.44 256.02,-614.44 252.97,-610.48 252.46,-617.18 249.92,-606.52 249.92,-606.52"/>
</g>
<!-- N6 -->
<g id="node18" class="node">
<title>N6</title>
<ellipse fill="lavender" stroke="black" cx="370" cy="-320.58" rx="27" ry="18"/>
<text text-anchor="middle" x="370" y="-316.88" font-family="Times-Roman" font-size="14.00">N6</text>
</g>
<!-- N31&#45;&gt;N6 -->
<g id="edge17" class="edge">
<title>N31&#45;&gt;N6</title>
<path fill="none" stroke="black" d="M370,-395.79C370,-382.64 370,-364.25 370,-349.07"/>
<polygon fill="black" stroke="black" points="370,-338.7 374.5,-348.7 370,-343.7 370,-348.7 370,-348.7 370,-348.7 370,-343.7 365.5,-348.7 370,-338.7 370,-338.7"/>
</g>
<!-- N3 -->
<g id="node16" class="node">
<title>N3</title>
<ellipse fill="lavender" stroke="black" cx="213" cy="-507.37" rx="27" ry="18"/>
<text text-anchor="middle" x="213" y="-503.67" font-family="Times-Roman" font-size="14.00">N3</text>
</g>
<!-- N47&#45;&gt;N3 -->
<g id="edge18" class="edge">
<title>N47&#45;&gt;N3</title>
<path fill="none" stroke="black" d="M232.82,-572.35C229.47,-561.53 225.03,-547.21 221.21,-534.86"/>
<polygon fill="black" stroke="black" points="218.17,-525.07 225.43,-533.29 219.65,-529.85 221.13,-534.63 221.13,-534.63 221.13,-534.63 219.65,-529.85 216.83,-535.96 218.17,-525.07 218.17,-525.07"/>
</g>
<!-- I5 -->
<g id="node6" class="node">
<title>I5</title>
<polygon fill="lavender" stroke="black" points="0,-656.51 27,-644.07 54,-656.51 53.97,-676.63 0.03,-676.63 0,-656.51"/>
<text text-anchor="middle" x="27" y="-658.37" font-family="Times-Roman" font-size="14.00">I5</text>
</g>
<!-- I5&#45;&gt;N75 -->
<g id="edge4" class="edge">
<title>I5&#45;&gt;N75</title>
<path fill="none" stroke="black" d="M34.11,-647.24C38.63,-638.46 44.62,-626.82 49.96,-616.42"/>
<polygon fill="black" stroke="black" points="54.64,-607.33 54.07,-618.28 52.35,-611.78 50.07,-616.22 50.07,-616.22 50.07,-616.22 52.35,-611.78 46.06,-614.16 54.64,-607.33 54.64,-607.33"/>
</g>
<!-- I10 -->
<g id="node7" class="node">
<title>I10</title>
<polygon fill="lavender" stroke="black" points="259.84,-408.42 291,-395.98 322.16,-408.42 322.13,-428.54 259.87,-428.54 259.84,-408.42"/>
<text text-anchor="middle" x="291" y="-410.28" font-family="Times-Roman" font-size="14.00">I10</text>
</g>
<!-- M6 -->
<g id="node8" class="node">
<title>M6</title>
<ellipse fill="lavender" stroke="black" cx="291" cy="-320.58" rx="24.87" ry="24.87"/>
<ellipse fill="none" stroke="black" cx="291" cy="-320.58" rx="28.9" ry="28.9"/>
<text text-anchor="middle" x="291" y="-316.88" font-family="Times-Roman" font-size="14.00">M6</text>
</g>
<!-- I10&#45;&gt;M6 -->
<g id="edge5" class="edge">
<title>I10&#45;&gt;M6</title>
<path fill="none" stroke="black" d="M291,-395.79C291,-385.61 291,-372.29 291,-359.74"/>
<polygon fill="black" stroke="black" points="291,-349.47 295.5,-359.47 291,-354.47 291,-359.47 291,-359.47 291,-359.47 291,-354.47 286.5,-359.47 291,-349.47 291,-349.47"/>
</g>
<!-- N19 -->
<g id="node9" class="node">
<title>N19</title>
<ellipse fill="lavender" stroke="black" cx="177" cy="-320.58" rx="29.5" ry="18"/>
<text text-anchor="middle" x="177" y="-316.88" font-family="Times-Roman" font-size="14.00">N19</text>
</g>
<!-- I10&#45;&gt;N19 -->
<g id="edge6" class="edge">
<title>I10&#45;&gt;N19</title>
<path fill="none" stroke="black" d="M276.56,-401.4C257.89,-386.43 225.05,-360.1 202.21,-341.8"/>
<polygon fill="black" stroke="black" points="194.3,-335.45 204.91,-338.19 198.2,-338.58 202.1,-341.71 202.1,-341.71 202.1,-341.71 198.2,-338.58 199.28,-345.22 194.3,-335.45 194.3,-335.45"/>
</g>
<!-- M7 -->
<g id="node15" class="node">
<title>M7</title>
<ellipse fill="lavender" stroke="black" cx="177" cy="-227.19" rx="24.87" ry="24.87"/>
<ellipse fill="none" stroke="black" cx="177" cy="-227.19" rx="28.9" ry="28.9"/>
<text text-anchor="middle" x="177" y="-223.49" font-family="Times-Roman" font-size="14.00">M7</text>
</g>
<!-- N19&#45;&gt;M7 -->
<g id="edge16" class="edge">
<title>N19&#45;&gt;M7</title>
<path fill="none" stroke="black" d="M177,-302.39C177,-292.21 177,-278.89 177,-266.35"/>
<polygon fill="black" stroke="black" points="177,-256.08 181.5,-266.08 177,-261.08 177,-266.08 177,-266.08 177,-266.08 177,-261.08 172.5,-266.08 177,-256.08 177,-256.08"/>
</g>
<!-- M1 -->
<g id="node10" class="node">
<title>M1</title>
<ellipse fill="lavender" stroke="black" cx="138" cy="-413.98" rx="24.87" ry="24.87"/>
<ellipse fill="none" stroke="black" cx="138" cy="-413.98" rx="28.9" ry="28.9"/>
<text text-anchor="middle" x="138" y="-410.28" font-family="Times-Roman" font-size="14.00">M1</text>
</g>
<!-- M1&#45;&gt;N19 -->
<g id="edge7" class="edge">
<title>M1&#45;&gt;N19</title>
<path fill="none" stroke="black" d="M149.07,-387.03C154.37,-374.62 160.69,-359.81 165.98,-347.41"/>
<polygon fill="black" stroke="black" points="169.96,-338.09 170.17,-349.05 168,-342.68 166.03,-347.28 166.03,-347.28 166.03,-347.28 168,-342.68 161.89,-345.52 169.96,-338.09 169.96,-338.09"/>
</g>
<!-- M3 -->
<g id="node11" class="node">
<title>M3</title>
<ellipse fill="lavender" stroke="black" cx="177" cy="-133.79" rx="24.87" ry="24.87"/>
<ellipse fill="none" stroke="black" cx="177" cy="-133.79" rx="28.9" ry="28.9"/>
<text text-anchor="middle" x="177" y="-130.09" font-family="Times-Roman" font-size="14.00">M3</text>
</g>
<!-- M10 -->
<g id="node12" class="node">
<title>M10</title>
<ellipse fill="lavender" stroke="black" cx="177" cy="-34.55" rx="30.59" ry="30.59"/>
<ellipse fill="none" stroke="black" cx="177" cy="-34.55" rx="34.59" ry="34.59"/>
<text text-anchor="middle" x="177" y="-30.85" font-family="Times-Roman" font-size="14.00">M10</text>
</g>
<!-- M3&#45;&gt;M10 -->
<g id="edge8" class="edge">
<title>M3&#45;&gt;M10</title>
<path fill="none" stroke="black" d="M177,-104.93C177,-96.94 177,-88.03 177,-79.33"/>
<polygon fill="black" stroke="black" points="177,-69.28 181.5,-79.28 177,-74.28 177,-79.28 177,-79.28 177,-79.28 177,-74.28 172.5,-79.28 177,-69.28 177,-69.28"/>
</g>
<!-- M9 -->
<g id="node14" class="node">
<title>M9</title>
<ellipse fill="lavender" stroke="black" cx="63" cy="-413.98" rx="24.87" ry="24.87"/>
<ellipse fill="none" stroke="black" cx="63" cy="-413.98" rx="28.9" ry="28.9"/>
<text text-anchor="middle" x="63" y="-410.28" font-family="Times-Roman" font-size="14.00">M9</text>
</g>
<!-- M5&#45;&gt;M9 -->
<g id="edge9" class="edge">
<title>M5&#45;&gt;M9</title>
<path fill="none" stroke="black" d="M63,-478.46C63,-470.4 63,-461.46 63,-452.9"/>
<polygon fill="black" stroke="black" points="63,-442.73 67.5,-452.73 63,-447.73 63,-452.73 63,-452.73 63,-452.73 63,-447.73 58.5,-452.73 63,-442.73 63,-442.73"/>
</g>
<!-- M7&#45;&gt;M3 -->
<g id="edge10" class="edge">
<title>M7&#45;&gt;M3</title>
<path fill="none" stroke="black" d="M177,-198.27C177,-190.21 177,-181.27 177,-172.71"/>
<polygon fill="black" stroke="black" points="177,-162.54 181.5,-172.54 177,-167.54 177,-172.54 177,-172.54 177,-172.54 177,-167.54 172.5,-172.54 177,-162.54 177,-162.54"/>
</g>
<!-- N3&#45;&gt;N31 -->
<g id="edge14" class="edge">
<title>N3&#45;&gt;N31</title>
<path fill="none" stroke="black" d="M234.33,-495.86C258.31,-483.81 298.18,-463.08 331,-442.68 335.19,-440.07 339.53,-437.19 343.73,-434.29"/>
<polygon fill="black" stroke="black" points="352.06,-428.41 346.48,-437.86 347.97,-431.3 343.89,-434.18 343.89,-434.18 343.89,-434.18 347.97,-431.3 341.29,-430.5 352.06,-428.41 352.06,-428.41"/>
</g>
<!-- N3&#45;&gt;M1 -->
<g id="edge11" class="edge">
<title>N3&#45;&gt;M1</title>
<path fill="none" stroke="black" d="M200.62,-491.28C190.2,-478.59 175,-460.07 162.18,-444.45"/>
<polygon fill="black" stroke="black" points="155.74,-436.59 165.56,-441.47 158.91,-440.46 162.08,-444.32 162.08,-444.32 162.08,-444.32 158.91,-440.46 158.6,-447.18 155.74,-436.59 155.74,-436.59"/>
</g>
<!-- N3&#45;&gt;M9 -->
<g id="edge13" class="edge">
<title>N3&#45;&gt;M9</title>
<path fill="none" stroke="black" d="M192.11,-495.65C169.07,-483.57 131.12,-462.98 100,-442.68 97.88,-441.3 95.73,-439.84 93.57,-438.34"/>
<polygon fill="black" stroke="black" points="85.37,-432.45 96.11,-434.62 89.43,-435.36 93.49,-438.28 93.49,-438.28 93.49,-438.28 89.43,-435.36 90.87,-441.93 85.37,-432.45 85.37,-432.45"/>
</g>
<!-- M4 -->
<g id="node17" class="node">
<title>M4</title>
<ellipse fill="lavender" stroke="black" cx="213" cy="-413.98" rx="24.87" ry="24.87"/>
<ellipse fill="none" stroke="black" cx="213" cy="-413.98" rx="28.9" ry="28.9"/>
<text text-anchor="middle" x="213" y="-410.28" font-family="Times-Roman" font-size="14.00">M4</text>
</g>
<!-- N3&#45;&gt;M4 -->
<g id="edge12" class="edge">
<title>N3&#45;&gt;M4</title>
<path fill="none" stroke="black" d="M213,-489.18C213,-479 213,-465.68 213,-453.14"/>
<polygon fill="black" stroke="black" points="213,-442.87 217.5,-452.87 213,-447.87 213,-452.87 213,-452.87 213,-452.87 213,-447.87 208.5,-452.87 213,-442.87 213,-442.87"/>
</g>
<!-- M8 -->
<g id="node19" class="node">
<title>M8</title>
<ellipse fill="lavender" stroke="black" cx="370" cy="-227.19" rx="24.87" ry="24.87"/>
<ellipse fill="none" stroke="black" cx="370" cy="-227.19" rx="28.9" ry="28.9"/>
<text text-anchor="middle" x="370" y="-223.49" font-family="Times-Roman" font-size="14.00">M8</text>
</g>
<!-- N6&#45;&gt;M8 -->
<g id="edge15" class="edge">
<title>N6&#45;&gt;M8</title>
<path fill="none" stroke="black" d="M370,-302.39C370,-292.21 370,-278.89 370,-266.35"/>
<polygon fill="black" stroke="black" points="370,-256.08 374.5,-266.08 370,-261.08 370,-266.08 370,-266.08 370,-266.08 370,-261.08 365.5,-266.08 370,-256.08 370,-256.08"/>
</g>
<!-- I3 -->
<g id="node20" class="node">
<title>I3</title>
<polygon fill="lavender" stroke="black" points="337,-656.51 364,-644.07 391,-656.51 390.97,-676.63 337.03,-676.63 337,-656.51"/>
<text text-anchor="middle" x="364" y="-658.37" font-family="Times-Roman" font-size="14.00">I3</text>
</g>
<!-- I4 -->
<g id="node21" class="node">
<title>I4</title>
<polygon fill="lavender" stroke="black" points="409,-656.51 436,-644.07 463,-656.51 462.97,-676.63 409.03,-676.63 409,-656.51"/>
<text text-anchor="middle" x="436" y="-658.37" font-family="Times-Roman" font-size="14.00">I4</text>
</g>
<!-- I6 -->
<g id="node22" class="node">
<title>I6</title>
<polygon fill="lavender" stroke="black" points="481,-656.51 508,-644.07 535,-656.51 534.97,-676.63 481.03,-676.63 481,-656.51"/>
<text text-anchor="middle" x="508" y="-658.37" font-family="Times-Roman" font-size="14.00">I6</text>
</g>
<!-- I7 -->
<g id="node23" class="node">
<title>I7</title>
<polygon fill="lavender" stroke="black" points="553,-656.51 580,-644.07 607,-656.51 606.97,-676.63 553.03,-676.63 553,-656.51"/>
<text text-anchor="middle" x="580" y="-658.37" font-family="Times-Roman" font-size="14.00">I7</text>
</g>
<!-- I8 -->
<g id="node24" class="node">
<title>I8</title>
<polygon fill="lavender" stroke="black" points="625,-656.51 652,-644.07 679,-656.51 678.97,-676.63 625.03,-676.63 625,-656.51"/>
<text text-anchor="middle" x="652" y="-658.37" font-family="Times-Roman" font-size="14.00">I8</text>
</g>
<!-- I9 -->
<g id="node25" class="node">
<title>I9</title>
<polygon fill="lavender" stroke="black" points="697,-656.51 724,-644.07 751,-656.51 750.97,-676.63 697.03,-676.63 697,-656.51"/>
<text text-anchor="middle" x="724" y="-658.37" font-family="Times-Roman" font-size="14.00">I9</text>
</g>
</g>
</svg>
